<svg xmlns="http://www.w3.org/2000/svg" width="4390" height="602" viewBox="0 0 4390 602" font-family="'Hiragino Sans','Noto Sans JP',sans-serif">
<rect width="4390" height="602" fill="#0f172a"/>
<text x="60" y="36" fill="#f1f5f9" font-size="22" font-weight="700">資産クラス別 年次推移（株式・不動産・仮想通貨）</text>
<text x="60" y="60" fill="#94a3b8" font-size="12">各系列を自系列の最大値=100%に正規化して重ね描き。欠損(null=未照合／その年に存在しない資産)は線を引かない。</text>
<line x1="80" y1="90" x2="80" y2="450" stroke="#475569"/>
<line x1="80" y1="450" x2="4340" y2="450" stroke="#475569"/>
<line x1="80" y1="450" x2="4340" y2="450" stroke="#1e293b"/>
<text x="72" y="454" fill="#64748b" font-size="10" text-anchor="end">0%</text>
<line x1="80" y1="360" x2="4340" y2="360" stroke="#1e293b"/>
<text x="72" y="364" fill="#64748b" font-size="10" text-anchor="end">25%</text>
<line x1="80" y1="270" x2="4340" y2="270" stroke="#1e293b"/>
<text x="72" y="274" fill="#64748b" font-size="10" text-anchor="end">50%</text>
<line x1="80" y1="180" x2="4340" y2="180" stroke="#1e293b"/>
<text x="72" y="184" fill="#64748b" font-size="10" text-anchor="end">75%</text>
<line x1="80" y1="90" x2="4340" y2="90" stroke="#1e293b"/>
<text x="72" y="94" fill="#64748b" font-size="10" text-anchor="end">100%</text>
<text x="80" y="468" fill="#cbd5e1" font-size="10" text-anchor="middle">1940</text>
<text x="200" y="468" fill="#cbd5e1" font-size="10" text-anchor="middle">1942</text>
<text x="320" y="468" fill="#cbd5e1" font-size="10" text-anchor="middle">1944</text>
<text x="440" y="468" fill="#cbd5e1" font-size="10" text-anchor="middle">1946</text>
<text x="560" y="468" fill="#cbd5e1" font-size="10" text-anchor="middle">1948</text>
<text x="680" y="468" fill="#cbd5e1" font-size="10" text-anchor="middle">1950</text>
<text x="800" y="468" fill="#cbd5e1" font-size="10" text-anchor="middle">1952</text>
<text x="920" y="468" fill="#cbd5e1" font-size="10" text-anchor="middle">1954</text>
<text x="1040" y="468" fill="#cbd5e1" font-size="10" text-anchor="middle">1956</text>
<text x="1160" y="468" fill="#cbd5e1" font-size="10" text-anchor="middle">1958</text>
<text x="1280" y="468" fill="#cbd5e1" font-size="10" text-anchor="middle">1960</text>
<text x="1400" y="468" fill="#cbd5e1" font-size="10" text-anchor="middle">1962</text>
<text x="1520" y="468" fill="#cbd5e1" font-size="10" text-anchor="middle">1964</text>
<text x="1640" y="468" fill="#cbd5e1" font-size="10" text-anchor="middle">1966</text>
<text x="1760" y="468" fill="#cbd5e1" font-size="10" text-anchor="middle">1968</text>
<text x="1880" y="468" fill="#cbd5e1" font-size="10" text-anchor="middle">1970</text>
<text x="2000" y="468" fill="#cbd5e1" font-size="10" text-anchor="middle">1972</text>
<text x="2120" y="468" fill="#cbd5e1" font-size="10" text-anchor="middle">1974</text>
<text x="2240" y="468" fill="#cbd5e1" font-size="10" text-anchor="middle">1976</text>
<text x="2360" y="468" fill="#cbd5e1" font-size="10" text-anchor="middle">1978</text>
<text x="2480" y="468" fill="#cbd5e1" font-size="10" text-anchor="middle">1980</text>
<text x="2600" y="468" fill="#cbd5e1" font-size="10" text-anchor="middle">1982</text>
<text x="2720" y="468" fill="#cbd5e1" font-size="10" text-anchor="middle">1984</text>
<text x="2840" y="468" fill="#cbd5e1" font-size="10" text-anchor="middle">1986</text>
<text x="2960" y="468" fill="#cbd5e1" font-size="10" text-anchor="middle">1988</text>
<text x="3080" y="468" fill="#cbd5e1" font-size="10" text-anchor="middle">1990</text>
<text x="3200" y="468" fill="#cbd5e1" font-size="10" text-anchor="middle">1992</text>
<text x="3320" y="468" fill="#cbd5e1" font-size="10" text-anchor="middle">1994</text>
<text x="3440" y="468" fill="#cbd5e1" font-size="10" text-anchor="middle">1996</text>
<text x="3560" y="468" fill="#cbd5e1" font-size="10" text-anchor="middle">1998</text>
<text x="3680" y="468" fill="#cbd5e1" font-size="10" text-anchor="middle">2000</text>
<text x="3800" y="468" fill="#cbd5e1" font-size="10" text-anchor="middle">2002</text>
<text x="3920" y="468" fill="#cbd5e1" font-size="10" text-anchor="middle">2004</text>
<text x="4040" y="468" fill="#cbd5e1" font-size="10" text-anchor="middle">2006</text>
<text x="4160" y="468" fill="#cbd5e1" font-size="10" text-anchor="middle">2008</text>
<text x="4280" y="468" fill="#cbd5e1" font-size="10" text-anchor="middle">2010</text>
<circle cx="80" cy="446.4" r="3" fill="#38bdf8"/>
<circle cx="140" cy="447.0" r="3" fill="#38bdf8"/>
<circle cx="200" cy="446.8" r="3" fill="#38bdf8"/>
<circle cx="260" cy="446.3" r="3" fill="#38bdf8"/>
<circle cx="320" cy="445.9" r="3" fill="#38bdf8"/>
<circle cx="380" cy="444.8" r="3" fill="#38bdf8"/>
<circle cx="440" cy="445.2" r="3" fill="#38bdf8"/>
<circle cx="500" cy="445.1" r="3" fill="#38bdf8"/>
<circle cx="560" cy="445.2" r="3" fill="#38bdf8"/>
<circle cx="620" cy="444.6" r="3" fill="#38bdf8"/>
<circle cx="680" cy="443.6" r="3" fill="#38bdf8"/>
<circle cx="740" cy="442.7" r="3" fill="#38bdf8"/>
<circle cx="800" cy="442.1" r="3" fill="#38bdf8"/>
<circle cx="860" cy="442.4" r="3" fill="#38bdf8"/>
<circle cx="920" cy="439.0" r="3" fill="#38bdf8"/>
<circle cx="980" cy="436.7" r="3" fill="#38bdf8"/>
<circle cx="1040" cy="436.4" r="3" fill="#38bdf8"/>
<circle cx="1100" cy="438.2" r="3" fill="#38bdf8"/>
<circle cx="1160" cy="434.2" r="3" fill="#38bdf8"/>
<circle cx="1220" cy="431.6" r="3" fill="#38bdf8"/>
<circle cx="1280" cy="433.3" r="3" fill="#38bdf8"/>
<circle cx="1340" cy="430.2" r="3" fill="#38bdf8"/>
<circle cx="1400" cy="432.3" r="3" fill="#38bdf8"/>
<circle cx="1460" cy="429.3" r="3" fill="#38bdf8"/>
<circle cx="1520" cy="426.3" r="3" fill="#38bdf8"/>
<circle cx="1580" cy="423.7" r="3" fill="#38bdf8"/>
<circle cx="1640" cy="428.7" r="3" fill="#38bdf8"/>
<circle cx="1700" cy="425.4" r="3" fill="#38bdf8"/>
<circle cx="1760" cy="424.4" r="3" fill="#38bdf8"/>
<circle cx="1820" cy="428.3" r="3" fill="#38bdf8"/>
<circle cx="1880" cy="427.2" r="3" fill="#38bdf8"/>
<circle cx="1940" cy="425.8" r="3" fill="#38bdf8"/>
<circle cx="2000" cy="422.3" r="3" fill="#38bdf8"/>
<circle cx="2060" cy="426.9" r="3" fill="#38bdf8"/>
<circle cx="2120" cy="433.3" r="3" fill="#38bdf8"/>
<circle cx="2180" cy="426.9" r="3" fill="#38bdf8"/>
<circle cx="2240" cy="422.7" r="3" fill="#38bdf8"/>
<circle cx="2300" cy="427.4" r="3" fill="#38bdf8"/>
<circle cx="2360" cy="428.2" r="3" fill="#38bdf8"/>
<circle cx="2420" cy="427.2" r="3" fill="#38bdf8"/>
<circle cx="2480" cy="423.8" r="3" fill="#38bdf8"/>
<circle cx="2540" cy="426.3" r="3" fill="#38bdf8"/>
<circle cx="2600" cy="421.6" r="3" fill="#38bdf8"/>
<circle cx="2660" cy="415.8" r="3" fill="#38bdf8"/>
<circle cx="2720" cy="417.1" r="3" fill="#38bdf8"/>
<circle cx="2780" cy="408.0" r="3" fill="#38bdf8"/>
<circle cx="2840" cy="398.5" r="3" fill="#38bdf8"/>
<circle cx="2900" cy="397.4" r="3" fill="#38bdf8"/>
<circle cx="2960" cy="391.1" r="3" fill="#38bdf8"/>
<circle cx="3020" cy="375.3" r="3" fill="#38bdf8"/>
<circle cx="3080" cy="378.5" r="3" fill="#38bdf8"/>
<circle cx="3140" cy="364.0" r="3" fill="#38bdf8"/>
<circle cx="3200" cy="360.4" r="3" fill="#38bdf8"/>
<circle cx="3260" cy="348.1" r="3" fill="#38bdf8"/>
<circle cx="3320" cy="345.9" r="3" fill="#38bdf8"/>
<circle cx="3380" cy="311.1" r="3" fill="#38bdf8"/>
<circle cx="3440" cy="275.0" r="3" fill="#38bdf8"/>
<circle cx="3500" cy="235.4" r="3" fill="#38bdf8"/>
<circle cx="3560" cy="200.8" r="3" fill="#38bdf8"/>
<circle cx="3620" cy="138.0" r="3" fill="#38bdf8"/>
<circle cx="3680" cy="157.3" r="3" fill="#38bdf8"/>
<circle cx="3740" cy="178.0" r="3" fill="#38bdf8"/>
<circle cx="3800" cy="223.6" r="3" fill="#38bdf8"/>
<circle cx="3860" cy="166.3" r="3" fill="#38bdf8"/>
<circle cx="3920" cy="157.4" r="3" fill="#38bdf8"/>
<circle cx="3980" cy="159.1" r="3" fill="#38bdf8"/>
<circle cx="4040" cy="111.8" r="3" fill="#38bdf8"/>
<circle cx="4100" cy="90.0" r="3" fill="#38bdf8"/>
<circle cx="4160" cy="211.8" r="3" fill="#38bdf8"/>
<circle cx="4220" cy="167.0" r="3" fill="#38bdf8"/>
<circle cx="4280" cy="135.8" r="3" fill="#38bdf8"/>
<circle cx="4340" cy="118.4" r="3" fill="#38bdf8"/>
<path d="M80,446.4 L140,447.0 L200,446.8 L260,446.3 L320,445.9 L380,444.8 L440,445.2 L500,445.1 L560,445.2 L620,444.6 L680,443.6 L740,442.7 L800,442.1 L860,442.4 L920,439.0 L980,436.7 L1040,436.4 L1100,438.2 L1160,434.2 L1220,431.6 L1280,433.3 L1340,430.2 L1400,432.3 L1460,429.3 L1520,426.3 L1580,423.7 L1640,428.7 L1700,425.4 L1760,424.4 L1820,428.3 L1880,427.2 L1940,425.8 L2000,422.3 L2060,426.9 L2120,433.3 L2180,426.9 L2240,422.7 L2300,427.4 L2360,428.2 L2420,427.2 L2480,423.8 L2540,426.3 L2600,421.6 L2660,415.8 L2720,417.1 L2780,408.0 L2840,398.5 L2900,397.4 L2960,391.1 L3020,375.3 L3080,378.5 L3140,364.0 L3200,360.4 L3260,348.1 L3320,345.9 L3380,311.1 L3440,275.0 L3500,235.4 L3560,200.8 L3620,138.0 L3680,157.3 L3740,178.0 L3800,223.6 L3860,166.3 L3920,157.4 L3980,159.1 L4040,111.8 L4100,90.0 L4160,211.8 L4220,167.0 L4280,135.8 L4340,118.4" fill="none" stroke="#38bdf8" stroke-width="2"/>
<circle cx="2180" cy="409.8" r="3" fill="#f97316"/>
<circle cx="2360" cy="394.5" r="3" fill="#f97316"/>
<circle cx="2420" cy="389.2" r="3" fill="#f97316"/>
<circle cx="2600" cy="375.8" r="3" fill="#f97316"/>
<circle cx="2840" cy="277.0" r="3" fill="#f97316"/>
<circle cx="2900" cy="250.5" r="3" fill="#f97316"/>
<circle cx="2960" cy="171.0" r="3" fill="#f97316"/>
<circle cx="3020" cy="90.0" r="3" fill="#f97316"/>
<circle cx="3080" cy="229.4" r="3" fill="#f97316"/>
<circle cx="3140" cy="237.4" r="3" fill="#f97316"/>
<circle cx="3200" cy="293.4" r="3" fill="#f97316"/>
<circle cx="3440" cy="270.9" r="3" fill="#f97316"/>
<circle cx="3500" cy="308.9" r="3" fill="#f97316"/>
<circle cx="3680" cy="322.5" r="3" fill="#f97316"/>
<circle cx="3740" cy="352.5" r="3" fill="#f97316"/>
<circle cx="3920" cy="343.7" r="3" fill="#f97316"/>
<circle cx="3980" cy="301.0" r="3" fill="#f97316"/>
<circle cx="4040" cy="290.6" r="3" fill="#f97316"/>
<circle cx="4100" cy="308.4" r="3" fill="#f97316"/>
<circle cx="4160" cy="368.0" r="3" fill="#f97316"/>
<circle cx="4280" cy="355.4" r="3" fill="#f97316"/>
<circle cx="4340" cy="371.8" r="3" fill="#f97316"/>
<path d="M2180,409.8 M2360,394.5 L2420,389.2 M2600,375.8 M2840,277.0 L2900,250.5 L2960,171.0 L3020,90.0 L3080,229.4 L3140,237.4 L3200,293.4 M3440,270.9 L3500,308.9 M3680,322.5 L3740,352.5 M3920,343.7 L3980,301.0 L4040,290.6 L4100,308.4 L4160,368.0 M4280,355.4 L4340,371.8" fill="none" stroke="#f97316" stroke-width="2"/>
<rect x="60" y="486" width="13" height="13" rx="2" fill="#38bdf8"/>
<text x="78" y="497" fill="#cbd5e1" font-size="11">ダウ平均(米株, 年末USD) — データ72年（直近 12217.56）</text>
<rect x="60" y="504" width="13" height="13" rx="2" fill="#f97316"/>
<text x="78" y="515" fill="#cbd5e1" font-size="11">日経平均(日本株, 年末円) — データ22年（直近 8455.35）</text>
<rect x="60" y="522" width="13" height="13" rx="2" fill="#a3e635"/>
<text x="78" y="533" fill="#cbd5e1" font-size="11">市街地価格指数(不動産, 1936/9=100) — データなし（N/A・未照合またはその年に存在しない資産）</text>
<rect x="60" y="540" width="13" height="13" rx="2" fill="#facc15"/>
<text x="78" y="551" fill="#cbd5e1" font-size="11">ビットコイン(仮想通貨, 年末USD) — データなし（N/A・未照合またはその年に存在しない資産）</text>
<text x="4360" y="594" fill="#64748b" font-size="10" text-anchor="end">出典: economicHistoryKnowledge.ts ASSET_SERIES（DJIA=MeasuringWorth/FRED 他・確証値）</text>
</svg>
