<svg xmlns="http://www.w3.org/2000/svg" width="3310" height="602" viewBox="0 0 3310 602" font-family="'Hiragino Sans','Noto Sans JP',sans-serif">
<rect width="3310" height="602" fill="#0f172a"/>
<text x="60" y="36" fill="#f1f5f9" font-size="22" font-weight="700">資産クラス別 年次推移（株式・不動産・仮想通貨）</text>
<text x="60" y="60" fill="#94a3b8" font-size="12">各系列を自系列の最大値=100%に正規化して重ね描き。欠損(null=未照合／その年に存在しない資産)は線を引かない。</text>
<line x1="80" y1="90" x2="80" y2="450" stroke="#475569"/>
<line x1="80" y1="450" x2="3260" y2="450" stroke="#475569"/>
<line x1="80" y1="450" x2="3260" y2="450" stroke="#1e293b"/>
<text x="72" y="454" fill="#64748b" font-size="10" text-anchor="end">0%</text>
<line x1="80" y1="360" x2="3260" y2="360" stroke="#1e293b"/>
<text x="72" y="364" fill="#64748b" font-size="10" text-anchor="end">25%</text>
<line x1="80" y1="270" x2="3260" y2="270" stroke="#1e293b"/>
<text x="72" y="274" fill="#64748b" font-size="10" text-anchor="end">50%</text>
<line x1="80" y1="180" x2="3260" y2="180" stroke="#1e293b"/>
<text x="72" y="184" fill="#64748b" font-size="10" text-anchor="end">75%</text>
<line x1="80" y1="90" x2="3260" y2="90" stroke="#1e293b"/>
<text x="72" y="94" fill="#64748b" font-size="10" text-anchor="end">100%</text>
<text x="80" y="468" fill="#cbd5e1" font-size="10" text-anchor="middle">1940</text>
<text x="200" y="468" fill="#cbd5e1" font-size="10" text-anchor="middle">1942</text>
<text x="320" y="468" fill="#cbd5e1" font-size="10" text-anchor="middle">1944</text>
<text x="440" y="468" fill="#cbd5e1" font-size="10" text-anchor="middle">1946</text>
<text x="560" y="468" fill="#cbd5e1" font-size="10" text-anchor="middle">1948</text>
<text x="680" y="468" fill="#cbd5e1" font-size="10" text-anchor="middle">1950</text>
<text x="800" y="468" fill="#cbd5e1" font-size="10" text-anchor="middle">1952</text>
<text x="920" y="468" fill="#cbd5e1" font-size="10" text-anchor="middle">1954</text>
<text x="1040" y="468" fill="#cbd5e1" font-size="10" text-anchor="middle">1956</text>
<text x="1160" y="468" fill="#cbd5e1" font-size="10" text-anchor="middle">1958</text>
<text x="1280" y="468" fill="#cbd5e1" font-size="10" text-anchor="middle">1960</text>
<text x="1400" y="468" fill="#cbd5e1" font-size="10" text-anchor="middle">1962</text>
<text x="1520" y="468" fill="#cbd5e1" font-size="10" text-anchor="middle">1964</text>
<text x="1640" y="468" fill="#cbd5e1" font-size="10" text-anchor="middle">1966</text>
<text x="1760" y="468" fill="#cbd5e1" font-size="10" text-anchor="middle">1968</text>
<text x="1880" y="468" fill="#cbd5e1" font-size="10" text-anchor="middle">1970</text>
<text x="2000" y="468" fill="#cbd5e1" font-size="10" text-anchor="middle">1972</text>
<text x="2120" y="468" fill="#cbd5e1" font-size="10" text-anchor="middle">1974</text>
<text x="2240" y="468" fill="#cbd5e1" font-size="10" text-anchor="middle">1976</text>
<text x="2360" y="468" fill="#cbd5e1" font-size="10" text-anchor="middle">1978</text>
<text x="2480" y="468" fill="#cbd5e1" font-size="10" text-anchor="middle">1980</text>
<text x="2600" y="468" fill="#cbd5e1" font-size="10" text-anchor="middle">1982</text>
<text x="2720" y="468" fill="#cbd5e1" font-size="10" text-anchor="middle">1984</text>
<text x="2840" y="468" fill="#cbd5e1" font-size="10" text-anchor="middle">1986</text>
<text x="2960" y="468" fill="#cbd5e1" font-size="10" text-anchor="middle">1988</text>
<text x="3080" y="468" fill="#cbd5e1" font-size="10" text-anchor="middle">1990</text>
<text x="3200" y="468" fill="#cbd5e1" font-size="10" text-anchor="middle">1992</text>
<circle cx="80" cy="437.4" r="3" fill="#38bdf8"/>
<circle cx="140" cy="439.4" r="3" fill="#38bdf8"/>
<circle cx="200" cy="438.6" r="3" fill="#38bdf8"/>
<circle cx="260" cy="437.0" r="3" fill="#38bdf8"/>
<circle cx="320" cy="435.4" r="3" fill="#38bdf8"/>
<circle cx="380" cy="431.5" r="3" fill="#38bdf8"/>
<circle cx="440" cy="433.0" r="3" fill="#38bdf8"/>
<circle cx="500" cy="432.6" r="3" fill="#38bdf8"/>
<circle cx="560" cy="433.0" r="3" fill="#38bdf8"/>
<circle cx="620" cy="430.8" r="3" fill="#38bdf8"/>
<circle cx="680" cy="427.4" r="3" fill="#38bdf8"/>
<circle cx="740" cy="424.2" r="3" fill="#38bdf8"/>
<circle cx="800" cy="422.0" r="3" fill="#38bdf8"/>
<circle cx="860" cy="423.1" r="3" fill="#38bdf8"/>
<circle cx="920" cy="411.2" r="3" fill="#38bdf8"/>
<circle cx="980" cy="403.2" r="3" fill="#38bdf8"/>
<circle cx="1040" cy="402.1" r="3" fill="#38bdf8"/>
<circle cx="1100" cy="408.2" r="3" fill="#38bdf8"/>
<circle cx="1160" cy="394.0" r="3" fill="#38bdf8"/>
<circle cx="1220" cy="384.9" r="3" fill="#38bdf8"/>
<circle cx="1280" cy="390.9" r="3" fill="#38bdf8"/>
<circle cx="1340" cy="379.9" r="3" fill="#38bdf8"/>
<circle cx="1400" cy="387.5" r="3" fill="#38bdf8"/>
<circle cx="1460" cy="376.8" r="3" fill="#38bdf8"/>
<circle cx="1520" cy="366.2" r="3" fill="#38bdf8"/>
<circle cx="1580" cy="357.1" r="3" fill="#38bdf8"/>
<circle cx="1640" cy="374.7" r="3" fill="#38bdf8"/>
<circle cx="1700" cy="363.2" r="3" fill="#38bdf8"/>
<circle cx="1760" cy="359.5" r="3" fill="#38bdf8"/>
<circle cx="1820" cy="373.2" r="3" fill="#38bdf8"/>
<circle cx="1880" cy="369.6" r="3" fill="#38bdf8"/>
<circle cx="1940" cy="364.6" r="3" fill="#38bdf8"/>
<circle cx="2000" cy="352.2" r="3" fill="#38bdf8"/>
<circle cx="2060" cy="368.4" r="3" fill="#38bdf8"/>
<circle cx="2120" cy="390.9" r="3" fill="#38bdf8"/>
<circle cx="2180" cy="368.3" r="3" fill="#38bdf8"/>
<circle cx="2240" cy="353.7" r="3" fill="#38bdf8"/>
<circle cx="2300" cy="370.3" r="3" fill="#38bdf8"/>
<circle cx="2360" cy="372.8" r="3" fill="#38bdf8"/>
<circle cx="2420" cy="369.6" r="3" fill="#38bdf8"/>
<circle cx="2480" cy="357.6" r="3" fill="#38bdf8"/>
<circle cx="2540" cy="366.1" r="3" fill="#38bdf8"/>
<circle cx="2600" cy="349.6" r="3" fill="#38bdf8"/>
<circle cx="2660" cy="329.3" r="3" fill="#38bdf8"/>
<circle cx="2720" cy="333.8" r="3" fill="#38bdf8"/>
<circle cx="2780" cy="301.7" r="3" fill="#38bdf8"/>
<circle cx="2840" cy="268.2" r="3" fill="#38bdf8"/>
<circle cx="2900" cy="264.1" r="3" fill="#38bdf8"/>
<circle cx="2960" cy="242.0" r="3" fill="#38bdf8"/>
<circle cx="3020" cy="186.0" r="3" fill="#38bdf8"/>
<circle cx="3080" cy="197.4" r="3" fill="#38bdf8"/>
<circle cx="3140" cy="146.1" r="3" fill="#38bdf8"/>
<circle cx="3200" cy="133.4" r="3" fill="#38bdf8"/>
<circle cx="3260" cy="90.0" r="3" fill="#38bdf8"/>
<path d="M80,437.4 L140,439.4 L200,438.6 L260,437.0 L320,435.4 L380,431.5 L440,433.0 L500,432.6 L560,433.0 L620,430.8 L680,427.4 L740,424.2 L800,422.0 L860,423.1 L920,411.2 L980,403.2 L1040,402.1 L1100,408.2 L1160,394.0 L1220,384.9 L1280,390.9 L1340,379.9 L1400,387.5 L1460,376.8 L1520,366.2 L1580,357.1 L1640,374.7 L1700,363.2 L1760,359.5 L1820,373.2 L1880,369.6 L1940,364.6 L2000,352.2 L2060,368.4 L2120,390.9 L2180,368.3 L2240,353.7 L2300,370.3 L2360,372.8 L2420,369.6 L2480,357.6 L2540,366.1 L2600,349.6 L2660,329.3 L2720,333.8 L2780,301.7 L2840,268.2 L2900,264.1 L2960,242.0 L3020,186.0 L3080,197.4 L3140,146.1 L3200,133.4 L3260,90.0" fill="none" stroke="#38bdf8" stroke-width="2"/>
<circle cx="2180" cy="409.8" r="3" fill="#f97316"/>
<circle cx="2360" cy="394.5" r="3" fill="#f97316"/>
<circle cx="2420" cy="389.2" r="3" fill="#f97316"/>
<circle cx="2600" cy="375.8" r="3" fill="#f97316"/>
<circle cx="2840" cy="277.0" r="3" fill="#f97316"/>
<circle cx="2900" cy="250.5" r="3" fill="#f97316"/>
<circle cx="2960" cy="171.0" r="3" fill="#f97316"/>
<circle cx="3020" cy="90.0" r="3" fill="#f97316"/>
<circle cx="3080" cy="229.4" r="3" fill="#f97316"/>
<circle cx="3140" cy="237.4" r="3" fill="#f97316"/>
<circle cx="3200" cy="293.4" r="3" fill="#f97316"/>
<path d="M2180,409.8 M2360,394.5 L2420,389.2 M2600,375.8 M2840,277.0 L2900,250.5 L2960,171.0 L3020,90.0 L3080,229.4 L3140,237.4 L3200,293.4" fill="none" stroke="#f97316" stroke-width="2"/>
<rect x="60" y="486" width="13" height="13" rx="2" fill="#38bdf8"/>
<text x="78" y="497" fill="#cbd5e1" font-size="11">ダウ平均(米株, 年末USD) — データ54年（直近 3754.09）</text>
<rect x="60" y="504" width="13" height="13" rx="2" fill="#f97316"/>
<text x="78" y="515" fill="#cbd5e1" font-size="11">日経平均(日本株, 年末円) — データ11年（直近 16924）</text>
<rect x="60" y="522" width="13" height="13" rx="2" fill="#a3e635"/>
<text x="78" y="533" fill="#cbd5e1" font-size="11">市街地価格指数(不動産, 1936/9=100) — データなし（N/A・未照合またはその年に存在しない資産）</text>
<rect x="60" y="540" width="13" height="13" rx="2" fill="#facc15"/>
<text x="78" y="551" fill="#cbd5e1" font-size="11">ビットコイン(仮想通貨, 年末USD) — データなし（N/A・未照合またはその年に存在しない資産）</text>
<text x="3280" y="594" fill="#64748b" font-size="10" text-anchor="end">出典: economicHistoryKnowledge.ts ASSET_SERIES（DJIA=MeasuringWorth/FRED 他・確証値）</text>
</svg>
