<svg xmlns="http://www.w3.org/2000/svg" width="3670" height="602" viewBox="0 0 3670 602" font-family="'Hiragino Sans','Noto Sans JP',sans-serif">
<rect width="3670" height="602" fill="#0f172a"/>
<text x="60" y="36" fill="#f1f5f9" font-size="22" font-weight="700">資産クラス別 年次推移（株式・不動産・仮想通貨）</text>
<text x="60" y="60" fill="#94a3b8" font-size="12">各系列を自系列の最大値=100%に正規化して重ね描き。欠損(null=未照合／その年に存在しない資産)は線を引かない。</text>
<line x1="80" y1="90" x2="80" y2="450" stroke="#475569"/>
<line x1="80" y1="450" x2="3620" y2="450" stroke="#475569"/>
<line x1="80" y1="450" x2="3620" y2="450" stroke="#1e293b"/>
<text x="72" y="454" fill="#64748b" font-size="10" text-anchor="end">0%</text>
<line x1="80" y1="360" x2="3620" y2="360" stroke="#1e293b"/>
<text x="72" y="364" fill="#64748b" font-size="10" text-anchor="end">25%</text>
<line x1="80" y1="270" x2="3620" y2="270" stroke="#1e293b"/>
<text x="72" y="274" fill="#64748b" font-size="10" text-anchor="end">50%</text>
<line x1="80" y1="180" x2="3620" y2="180" stroke="#1e293b"/>
<text x="72" y="184" fill="#64748b" font-size="10" text-anchor="end">75%</text>
<line x1="80" y1="90" x2="3620" y2="90" stroke="#1e293b"/>
<text x="72" y="94" fill="#64748b" font-size="10" text-anchor="end">100%</text>
<text x="80" y="468" fill="#cbd5e1" font-size="10" text-anchor="middle">1940</text>
<text x="200" y="468" fill="#cbd5e1" font-size="10" text-anchor="middle">1942</text>
<text x="320" y="468" fill="#cbd5e1" font-size="10" text-anchor="middle">1944</text>
<text x="440" y="468" fill="#cbd5e1" font-size="10" text-anchor="middle">1946</text>
<text x="560" y="468" fill="#cbd5e1" font-size="10" text-anchor="middle">1948</text>
<text x="680" y="468" fill="#cbd5e1" font-size="10" text-anchor="middle">1950</text>
<text x="800" y="468" fill="#cbd5e1" font-size="10" text-anchor="middle">1952</text>
<text x="920" y="468" fill="#cbd5e1" font-size="10" text-anchor="middle">1954</text>
<text x="1040" y="468" fill="#cbd5e1" font-size="10" text-anchor="middle">1956</text>
<text x="1160" y="468" fill="#cbd5e1" font-size="10" text-anchor="middle">1958</text>
<text x="1280" y="468" fill="#cbd5e1" font-size="10" text-anchor="middle">1960</text>
<text x="1400" y="468" fill="#cbd5e1" font-size="10" text-anchor="middle">1962</text>
<text x="1520" y="468" fill="#cbd5e1" font-size="10" text-anchor="middle">1964</text>
<text x="1640" y="468" fill="#cbd5e1" font-size="10" text-anchor="middle">1966</text>
<text x="1760" y="468" fill="#cbd5e1" font-size="10" text-anchor="middle">1968</text>
<text x="1880" y="468" fill="#cbd5e1" font-size="10" text-anchor="middle">1970</text>
<text x="2000" y="468" fill="#cbd5e1" font-size="10" text-anchor="middle">1972</text>
<text x="2120" y="468" fill="#cbd5e1" font-size="10" text-anchor="middle">1974</text>
<text x="2240" y="468" fill="#cbd5e1" font-size="10" text-anchor="middle">1976</text>
<text x="2360" y="468" fill="#cbd5e1" font-size="10" text-anchor="middle">1978</text>
<text x="2480" y="468" fill="#cbd5e1" font-size="10" text-anchor="middle">1980</text>
<text x="2600" y="468" fill="#cbd5e1" font-size="10" text-anchor="middle">1982</text>
<text x="2720" y="468" fill="#cbd5e1" font-size="10" text-anchor="middle">1984</text>
<text x="2840" y="468" fill="#cbd5e1" font-size="10" text-anchor="middle">1986</text>
<text x="2960" y="468" fill="#cbd5e1" font-size="10" text-anchor="middle">1988</text>
<text x="3080" y="468" fill="#cbd5e1" font-size="10" text-anchor="middle">1990</text>
<text x="3200" y="468" fill="#cbd5e1" font-size="10" text-anchor="middle">1992</text>
<text x="3320" y="468" fill="#cbd5e1" font-size="10" text-anchor="middle">1994</text>
<text x="3440" y="468" fill="#cbd5e1" font-size="10" text-anchor="middle">1996</text>
<text x="3560" y="468" fill="#cbd5e1" font-size="10" text-anchor="middle">1998</text>
<circle cx="80" cy="445.9" r="3" fill="#38bdf8"/>
<circle cx="140" cy="446.5" r="3" fill="#38bdf8"/>
<circle cx="200" cy="446.3" r="3" fill="#38bdf8"/>
<circle cx="260" cy="445.7" r="3" fill="#38bdf8"/>
<circle cx="320" cy="445.2" r="3" fill="#38bdf8"/>
<circle cx="380" cy="444.0" r="3" fill="#38bdf8"/>
<circle cx="440" cy="444.5" r="3" fill="#38bdf8"/>
<circle cx="500" cy="444.3" r="3" fill="#38bdf8"/>
<circle cx="560" cy="444.4" r="3" fill="#38bdf8"/>
<circle cx="620" cy="443.7" r="3" fill="#38bdf8"/>
<circle cx="680" cy="442.6" r="3" fill="#38bdf8"/>
<circle cx="740" cy="441.6" r="3" fill="#38bdf8"/>
<circle cx="800" cy="440.9" r="3" fill="#38bdf8"/>
<circle cx="860" cy="441.2" r="3" fill="#38bdf8"/>
<circle cx="920" cy="437.3" r="3" fill="#38bdf8"/>
<circle cx="980" cy="434.7" r="3" fill="#38bdf8"/>
<circle cx="1040" cy="434.4" r="3" fill="#38bdf8"/>
<circle cx="1100" cy="436.4" r="3" fill="#38bdf8"/>
<circle cx="1160" cy="431.7" r="3" fill="#38bdf8"/>
<circle cx="1220" cy="428.7" r="3" fill="#38bdf8"/>
<circle cx="1280" cy="430.7" r="3" fill="#38bdf8"/>
<circle cx="1340" cy="427.1" r="3" fill="#38bdf8"/>
<circle cx="1400" cy="429.6" r="3" fill="#38bdf8"/>
<circle cx="1460" cy="426.1" r="3" fill="#38bdf8"/>
<circle cx="1520" cy="422.6" r="3" fill="#38bdf8"/>
<circle cx="1580" cy="419.7" r="3" fill="#38bdf8"/>
<circle cx="1640" cy="425.4" r="3" fill="#38bdf8"/>
<circle cx="1700" cy="421.7" r="3" fill="#38bdf8"/>
<circle cx="1760" cy="420.4" r="3" fill="#38bdf8"/>
<circle cx="1820" cy="424.9" r="3" fill="#38bdf8"/>
<circle cx="1880" cy="423.7" r="3" fill="#38bdf8"/>
<circle cx="1940" cy="422.1" r="3" fill="#38bdf8"/>
<circle cx="2000" cy="418.1" r="3" fill="#38bdf8"/>
<circle cx="2060" cy="423.4" r="3" fill="#38bdf8"/>
<circle cx="2120" cy="430.7" r="3" fill="#38bdf8"/>
<circle cx="2180" cy="423.3" r="3" fill="#38bdf8"/>
<circle cx="2240" cy="418.5" r="3" fill="#38bdf8"/>
<circle cx="2300" cy="424.0" r="3" fill="#38bdf8"/>
<circle cx="2360" cy="424.8" r="3" fill="#38bdf8"/>
<circle cx="2420" cy="423.7" r="3" fill="#38bdf8"/>
<circle cx="2480" cy="419.8" r="3" fill="#38bdf8"/>
<circle cx="2540" cy="422.6" r="3" fill="#38bdf8"/>
<circle cx="2600" cy="417.2" r="3" fill="#38bdf8"/>
<circle cx="2660" cy="410.6" r="3" fill="#38bdf8"/>
<circle cx="2720" cy="412.1" r="3" fill="#38bdf8"/>
<circle cx="2780" cy="401.6" r="3" fill="#38bdf8"/>
<circle cx="2840" cy="390.6" r="3" fill="#38bdf8"/>
<circle cx="2900" cy="389.3" r="3" fill="#38bdf8"/>
<circle cx="2960" cy="382.1" r="3" fill="#38bdf8"/>
<circle cx="3020" cy="363.8" r="3" fill="#38bdf8"/>
<circle cx="3080" cy="367.5" r="3" fill="#38bdf8"/>
<circle cx="3140" cy="350.8" r="3" fill="#38bdf8"/>
<circle cx="3200" cy="346.6" r="3" fill="#38bdf8"/>
<circle cx="3260" cy="332.5" r="3" fill="#38bdf8"/>
<circle cx="3320" cy="329.9" r="3" fill="#38bdf8"/>
<circle cx="3380" cy="289.8" r="3" fill="#38bdf8"/>
<circle cx="3440" cy="248.1" r="3" fill="#38bdf8"/>
<circle cx="3500" cy="202.4" r="3" fill="#38bdf8"/>
<circle cx="3560" cy="162.5" r="3" fill="#38bdf8"/>
<circle cx="3620" cy="90.0" r="3" fill="#38bdf8"/>
<path d="M80,445.9 L140,446.5 L200,446.3 L260,445.7 L320,445.2 L380,444.0 L440,444.5 L500,444.3 L560,444.4 L620,443.7 L680,442.6 L740,441.6 L800,440.9 L860,441.2 L920,437.3 L980,434.7 L1040,434.4 L1100,436.4 L1160,431.7 L1220,428.7 L1280,430.7 L1340,427.1 L1400,429.6 L1460,426.1 L1520,422.6 L1580,419.7 L1640,425.4 L1700,421.7 L1760,420.4 L1820,424.9 L1880,423.7 L1940,422.1 L2000,418.1 L2060,423.4 L2120,430.7 L2180,423.3 L2240,418.5 L2300,424.0 L2360,424.8 L2420,423.7 L2480,419.8 L2540,422.6 L2600,417.2 L2660,410.6 L2720,412.1 L2780,401.6 L2840,390.6 L2900,389.3 L2960,382.1 L3020,363.8 L3080,367.5 L3140,350.8 L3200,346.6 L3260,332.5 L3320,329.9 L3380,289.8 L3440,248.1 L3500,202.4 L3560,162.5 L3620,90.0" fill="none" stroke="#38bdf8" stroke-width="2"/>
<circle cx="2180" cy="409.8" r="3" fill="#f97316"/>
<circle cx="2360" cy="394.5" r="3" fill="#f97316"/>
<circle cx="2420" cy="389.2" r="3" fill="#f97316"/>
<circle cx="2600" cy="375.8" r="3" fill="#f97316"/>
<circle cx="2840" cy="277.0" r="3" fill="#f97316"/>
<circle cx="2900" cy="250.5" r="3" fill="#f97316"/>
<circle cx="2960" cy="171.0" r="3" fill="#f97316"/>
<circle cx="3020" cy="90.0" r="3" fill="#f97316"/>
<circle cx="3080" cy="229.4" r="3" fill="#f97316"/>
<circle cx="3140" cy="237.4" r="3" fill="#f97316"/>
<circle cx="3200" cy="293.4" r="3" fill="#f97316"/>
<circle cx="3440" cy="270.9" r="3" fill="#f97316"/>
<circle cx="3500" cy="308.9" r="3" fill="#f97316"/>
<path d="M2180,409.8 M2360,394.5 L2420,389.2 M2600,375.8 M2840,277.0 L2900,250.5 L2960,171.0 L3020,90.0 L3080,229.4 L3140,237.4 L3200,293.4 M3440,270.9 L3500,308.9" fill="none" stroke="#f97316" stroke-width="2"/>
<rect x="60" y="486" width="13" height="13" rx="2" fill="#38bdf8"/>
<text x="78" y="497" fill="#cbd5e1" font-size="11">ダウ平均(米株, 年末USD) — データ60年（直近 11497.12）</text>
<rect x="60" y="504" width="13" height="13" rx="2" fill="#f97316"/>
<text x="78" y="515" fill="#cbd5e1" font-size="11">日経平均(日本株, 年末円) — データ13年（直近 15258）</text>
<rect x="60" y="522" width="13" height="13" rx="2" fill="#a3e635"/>
<text x="78" y="533" fill="#cbd5e1" font-size="11">市街地価格指数(不動産, 1936/9=100) — データなし（N/A・未照合またはその年に存在しない資産）</text>
<rect x="60" y="540" width="13" height="13" rx="2" fill="#facc15"/>
<text x="78" y="551" fill="#cbd5e1" font-size="11">ビットコイン(仮想通貨, 年末USD) — データなし（N/A・未照合またはその年に存在しない資産）</text>
<text x="3640" y="594" fill="#64748b" font-size="10" text-anchor="end">出典: economicHistoryKnowledge.ts ASSET_SERIES（DJIA=MeasuringWorth/FRED 他・確証値）</text>
</svg>
