<svg xmlns="http://www.w3.org/2000/svg" width="5870" height="620" viewBox="0 0 5870 620" font-family="'Hiragino Sans','Noto Sans JP',sans-serif">
<rect width="5870" height="620" fill="#0f172a"/>
<text x="70" y="40" fill="#f1f5f9" font-size="24" font-weight="700">世界経済・日本経済 年表（1940〜） — 出典確証済み</text>
<text x="70" y="66" fill="#94a3b8" font-size="13">上向き=拡大産業の傾向数 / 下向き=縮小産業の傾向数（出典で裏付く定性傾向の件数。厳密な経済指標ではない）</text>
<line x1="60" y1="360" x2="5830" y2="360" stroke="#475569" stroke-width="1.5"/>
<line x1="60" y1="334" x2="5830" y2="334" stroke="#1e293b" stroke-width="1"/>
<line x1="60" y1="386" x2="5830" y2="386" stroke="#1e293b" stroke-width="1"/>
<text x="54" y="338" fill="#64748b" font-size="11" text-anchor="end">1</text>
<text x="54" y="390" fill="#64748b" font-size="11" text-anchor="end">1</text>
<line x1="60" y1="308" x2="5830" y2="308" stroke="#1e293b" stroke-width="1"/>
<line x1="60" y1="412" x2="5830" y2="412" stroke="#1e293b" stroke-width="1"/>
<text x="54" y="312" fill="#64748b" font-size="11" text-anchor="end">2</text>
<text x="54" y="416" fill="#64748b" font-size="11" text-anchor="end">2</text>
<line x1="60" y1="282" x2="5830" y2="282" stroke="#1e293b" stroke-width="1"/>
<line x1="60" y1="438" x2="5830" y2="438" stroke="#1e293b" stroke-width="1"/>
<text x="54" y="286" fill="#64748b" font-size="11" text-anchor="end">3</text>
<text x="54" y="442" fill="#64748b" font-size="11" text-anchor="end">3</text>
<text x="54" y="272" fill="#22c55e" font-size="11" text-anchor="end">拡大</text>
<text x="54" y="458" fill="#ef4444" font-size="11" text-anchor="end">縮小</text>
<rect x="108" y="334" width="44" height="26" rx="3" fill="#22c55e" opacity="0.85"/>
<rect x="108" y="360" width="44" height="26" rx="3" fill="#ef4444" opacity="0.85"/>
<text x="130" y="488" fill="#f1f5f9" font-size="15" font-weight="700" text-anchor="middle">1940</text>
<text x="130" y="506" fill="#94a3b8" font-size="11" text-anchor="middle">昭和15年</text>
<text x="130" y="526" fill="#cbd5e1" font-size="10" text-anchor="middle" transform="rotate(12 130 526)">ドイツの西欧侵攻（ノルウェー・低地諸国・フランス陥落）とバトル・オブ・ブリテン</text>
<rect x="228" y="334" width="44" height="26" rx="3" fill="#22c55e" opacity="0.85"/>
<rect x="228" y="360" width="44" height="26" rx="3" fill="#ef4444" opacity="0.85"/>
<text x="250" y="488" fill="#f1f5f9" font-size="15" font-weight="700" text-anchor="middle">1941</text>
<text x="250" y="506" fill="#94a3b8" font-size="11" text-anchor="middle">昭和16年</text>
<text x="250" y="526" fill="#cbd5e1" font-size="10" text-anchor="middle" transform="rotate(12 250 526)">米武器貸与法（Lend-Lease Act）成立（3/11）— 米経済の戦時動…</text>
<rect x="348" y="334" width="44" height="26" rx="3" fill="#22c55e" opacity="0.85"/>
<rect x="348" y="360" width="44" height="26" rx="3" fill="#ef4444" opacity="0.85"/>
<text x="370" y="488" fill="#f1f5f9" font-size="15" font-weight="700" text-anchor="middle">1942</text>
<text x="370" y="506" fill="#94a3b8" font-size="11" text-anchor="middle">昭和17年</text>
<text x="370" y="526" fill="#cbd5e1" font-size="10" text-anchor="middle" transform="rotate(12 370 526)">ミッドウェー海戦（6/3–6）— 太平洋戦争の転換点</text>
<rect x="468" y="334" width="44" height="26" rx="3" fill="#22c55e" opacity="0.85"/>
<rect x="468" y="360" width="44" height="26" rx="3" fill="#ef4444" opacity="0.85"/>
<text x="490" y="488" fill="#f1f5f9" font-size="15" font-weight="700" text-anchor="middle">1943</text>
<text x="490" y="506" fill="#94a3b8" font-size="11" text-anchor="middle">昭和18年</text>
<text x="490" y="526" fill="#cbd5e1" font-size="10" text-anchor="middle" transform="rotate(12 490 526)">スターリングラードの戦い終結（2/2、ドイツ第6軍降伏）— 独ソ戦の転換点</text>
<rect x="588" y="334" width="44" height="26" rx="3" fill="#22c55e" opacity="0.85"/>
<rect x="588" y="360" width="44" height="26" rx="3" fill="#ef4444" opacity="0.85"/>
<text x="610" y="488" fill="#f1f5f9" font-size="15" font-weight="700" text-anchor="middle">1944</text>
<text x="610" y="506" fill="#94a3b8" font-size="11" text-anchor="middle">昭和19年</text>
<text x="610" y="526" fill="#cbd5e1" font-size="10" text-anchor="middle" transform="rotate(12 610 526)">ノルマンディー上陸作戦（6/6）</text>
<rect x="708" y="334" width="44" height="26" rx="3" fill="#22c55e" opacity="0.85"/>
<rect x="708" y="360" width="44" height="26" rx="3" fill="#ef4444" opacity="0.85"/>
<text x="730" y="488" fill="#f1f5f9" font-size="15" font-weight="700" text-anchor="middle">1945</text>
<text x="730" y="506" fill="#94a3b8" font-size="11" text-anchor="middle">昭和20年</text>
<text x="730" y="526" fill="#cbd5e1" font-size="10" text-anchor="middle" transform="rotate(12 730 526)">第二次世界大戦の終結（対日戦は8/15玉音放送・9/2降伏文書調印）</text>
<rect x="828" y="308" width="44" height="52" rx="3" fill="#22c55e" opacity="0.85"/>
<rect x="828" y="360" width="44" height="26" rx="3" fill="#ef4444" opacity="0.85"/>
<text x="850" y="488" fill="#f1f5f9" font-size="15" font-weight="700" text-anchor="middle">1946</text>
<text x="850" y="506" fill="#94a3b8" font-size="11" text-anchor="middle">昭和21年</text>
<text x="850" y="526" fill="#cbd5e1" font-size="10" text-anchor="middle" transform="rotate(12 850 526)">金融緊急措置令（2月）— 預金封鎖・新円切替で通貨膨張を抑制</text>
<rect x="948" y="308" width="44" height="52" rx="3" fill="#22c55e" opacity="0.85"/>
<rect x="948" y="360" width="44" height="26" rx="3" fill="#ef4444" opacity="0.85"/>
<text x="970" y="488" fill="#f1f5f9" font-size="15" font-weight="700" text-anchor="middle">1947</text>
<text x="970" y="506" fill="#94a3b8" font-size="11" text-anchor="middle">昭和22年</text>
<text x="970" y="526" fill="#cbd5e1" font-size="10" text-anchor="middle" transform="rotate(12 970 526)">トルーマン・ドクトリン（3/12）／マーシャル・プラン提唱（6/5）</text>
<rect x="1068" y="308" width="44" height="52" rx="3" fill="#22c55e" opacity="0.85"/>
<rect x="1068" y="360" width="44" height="52" rx="3" fill="#ef4444" opacity="0.85"/>
<text x="1090" y="488" fill="#f1f5f9" font-size="15" font-weight="700" text-anchor="middle">1948</text>
<text x="1090" y="506" fill="#94a3b8" font-size="11" text-anchor="middle">昭和23年</text>
<text x="1090" y="526" fill="#cbd5e1" font-size="10" text-anchor="middle" transform="rotate(12 1090 526)">マーシャル・プラン（経済協力法）成立（4/3）— 西欧復興本格化</text>
<rect x="1188" y="308" width="44" height="52" rx="3" fill="#22c55e" opacity="0.85"/>
<rect x="1188" y="360" width="44" height="26" rx="3" fill="#ef4444" opacity="0.85"/>
<text x="1210" y="488" fill="#f1f5f9" font-size="15" font-weight="700" text-anchor="middle">1949</text>
<text x="1210" y="506" fill="#94a3b8" font-size="11" text-anchor="middle">昭和24年</text>
<text x="1210" y="526" fill="#cbd5e1" font-size="10" text-anchor="middle" transform="rotate(12 1210 526)">ドッジ・ライン発表（3/7）— 超均衡予算でインフレ強制収束</text>
<rect x="1308" y="334" width="44" height="26" rx="3" fill="#22c55e" opacity="0.85"/>
<rect x="1308" y="360" width="44" height="26" rx="3" fill="#ef4444" opacity="0.85"/>
<text x="1330" y="488" fill="#f1f5f9" font-size="15" font-weight="700" text-anchor="middle">1950</text>
<text x="1330" y="506" fill="#94a3b8" font-size="11" text-anchor="middle">昭和25年</text>
<text x="1330" y="526" fill="#cbd5e1" font-size="10" text-anchor="middle" transform="rotate(12 1330 526)">朝鮮戦争勃発（6/25）— 冷戦初の本格的軍事衝突</text>
<rect x="1428" y="334" width="44" height="26" rx="3" fill="#22c55e" opacity="0.85"/>
<rect x="1428" y="360" width="44" height="26" rx="3" fill="#ef4444" opacity="0.85"/>
<text x="1450" y="488" fill="#f1f5f9" font-size="15" font-weight="700" text-anchor="middle">1951</text>
<text x="1450" y="506" fill="#94a3b8" font-size="11" text-anchor="middle">昭和26年</text>
<text x="1450" y="526" fill="#cbd5e1" font-size="10" text-anchor="middle" transform="rotate(12 1450 526)">サンフランシスコ講和条約・日米安全保障条約に調印（9/8、翌1952年発効）</text>
<rect x="1548" y="334" width="44" height="26" rx="3" fill="#22c55e" opacity="0.85"/>
<rect x="1548" y="360" width="44" height="26" rx="3" fill="#ef4444" opacity="0.85"/>
<text x="1570" y="488" fill="#f1f5f9" font-size="15" font-weight="700" text-anchor="middle">1952</text>
<text x="1570" y="506" fill="#94a3b8" font-size="11" text-anchor="middle">昭和27年</text>
<text x="1570" y="526" fill="#cbd5e1" font-size="10" text-anchor="middle" transform="rotate(12 1570 526)">サンフランシスコ講和条約・日米安保条約 発効（4/28）— 占領終結・主権回復</text>
<rect x="1668" y="334" width="44" height="26" rx="3" fill="#22c55e" opacity="0.85"/>
<rect x="1668" y="360" width="44" height="26" rx="3" fill="#ef4444" opacity="0.85"/>
<text x="1690" y="488" fill="#f1f5f9" font-size="15" font-weight="700" text-anchor="middle">1953</text>
<text x="1690" y="506" fill="#94a3b8" font-size="11" text-anchor="middle">昭和28年</text>
<text x="1690" y="526" fill="#cbd5e1" font-size="10" text-anchor="middle" transform="rotate(12 1690 526)">NHKテレビ本放送開始（2/1）／日本テレビ民放テレビ開始（8/28）</text>
<rect x="1788" y="308" width="44" height="52" rx="3" fill="#22c55e" opacity="0.85"/>
<rect x="1788" y="360" width="44" height="26" rx="3" fill="#ef4444" opacity="0.85"/>
<text x="1810" y="488" fill="#f1f5f9" font-size="15" font-weight="700" text-anchor="middle">1954</text>
<text x="1810" y="506" fill="#94a3b8" font-size="11" text-anchor="middle">昭和29年</text>
<text x="1810" y="526" fill="#cbd5e1" font-size="10" text-anchor="middle" transform="rotate(12 1810 526)">ディエンビエンフー陥落（5/7）／ジュネーブ協定（7/21）— 第一次インドシ…</text>
<rect x="1908" y="334" width="44" height="26" rx="3" fill="#22c55e" opacity="0.85"/>
<rect x="1908" y="360" width="44" height="26" rx="3" fill="#ef4444" opacity="0.85"/>
<text x="1930" y="488" fill="#f1f5f9" font-size="15" font-weight="700" text-anchor="middle">1955</text>
<text x="1930" y="506" fill="#94a3b8" font-size="11" text-anchor="middle">昭和30年</text>
<text x="1930" y="526" fill="#cbd5e1" font-size="10" text-anchor="middle" transform="rotate(12 1930 526)">ジュネーブ4巨頭会談（7月）— 戦後初の首脳会談で東西緊張が一時緩和</text>
<rect x="2028" y="334" width="44" height="26" rx="3" fill="#22c55e" opacity="0.85"/>
<rect x="2028" y="360" width="44" height="26" rx="3" fill="#ef4444" opacity="0.85"/>
<text x="2050" y="488" fill="#f1f5f9" font-size="15" font-weight="700" text-anchor="middle">1956</text>
<text x="2050" y="506" fill="#94a3b8" font-size="11" text-anchor="middle">昭和31年</text>
<text x="2050" y="526" fill="#cbd5e1" font-size="10" text-anchor="middle" transform="rotate(12 2050 526)">スエズ動乱（10–11月）／ハンガリー動乱（10/23–11/10）</text>
<rect x="2148" y="308" width="44" height="52" rx="3" fill="#22c55e" opacity="0.85"/>
<rect x="2148" y="360" width="44" height="52" rx="3" fill="#ef4444" opacity="0.85"/>
<text x="2170" y="488" fill="#f1f5f9" font-size="15" font-weight="700" text-anchor="middle">1957</text>
<text x="2170" y="506" fill="#94a3b8" font-size="11" text-anchor="middle">昭和32年</text>
<text x="2170" y="526" fill="#cbd5e1" font-size="10" text-anchor="middle" transform="rotate(12 2170 526)">ローマ条約調印（3/25）— EEC設立へ（発効1958/1/1）</text>
<rect x="2268" y="308" width="44" height="52" rx="3" fill="#22c55e" opacity="0.85"/>
<rect x="2268" y="360" width="44" height="26" rx="3" fill="#ef4444" opacity="0.85"/>
<text x="2290" y="488" fill="#f1f5f9" font-size="15" font-weight="700" text-anchor="middle">1958</text>
<text x="2290" y="506" fill="#94a3b8" font-size="11" text-anchor="middle">昭和33年</text>
<text x="2290" y="526" fill="#cbd5e1" font-size="10" text-anchor="middle" transform="rotate(12 2290 526)">ローマ条約発効（1/1）— EEC・ユーラトム発足（原加盟6か国）</text>
<rect x="2388" y="334" width="44" height="26" rx="3" fill="#22c55e" opacity="0.85"/>
<rect x="2388" y="360" width="44" height="26" rx="3" fill="#ef4444" opacity="0.85"/>
<text x="2410" y="488" fill="#f1f5f9" font-size="15" font-weight="700" text-anchor="middle">1959</text>
<text x="2410" y="506" fill="#94a3b8" font-size="11" text-anchor="middle">昭和34年</text>
<text x="2410" y="526" fill="#cbd5e1" font-size="10" text-anchor="middle" transform="rotate(12 2410 526)">皇太子ご成婚（4/10）— テレビ需要で白黒TV普及を加速（ミッチー・ブーム）</text>
<rect x="2508" y="334" width="44" height="26" rx="3" fill="#22c55e" opacity="0.85"/>
<rect x="2508" y="360" width="44" height="26" rx="3" fill="#ef4444" opacity="0.85"/>
<text x="2530" y="488" fill="#f1f5f9" font-size="15" font-weight="700" text-anchor="middle">1960</text>
<text x="2530" y="506" fill="#94a3b8" font-size="11" text-anchor="middle">昭和35年</text>
<text x="2530" y="526" fill="#cbd5e1" font-size="10" text-anchor="middle" transform="rotate(12 2530 526)">60年安保闘争が頂点（6月）→ 岸内閣退陣／池田内閣成立（7月）</text>
<rect x="2628" y="308" width="44" height="52" rx="3" fill="#22c55e" opacity="0.85"/>
<rect x="2628" y="360" width="44" height="26" rx="3" fill="#ef4444" opacity="0.85"/>
<text x="2650" y="488" fill="#f1f5f9" font-size="15" font-weight="700" text-anchor="middle">1961</text>
<text x="2650" y="506" fill="#94a3b8" font-size="11" text-anchor="middle">昭和36年</text>
<text x="2650" y="526" fill="#cbd5e1" font-size="10" text-anchor="middle" transform="rotate(12 2650 526)">ガガーリン人類初の有人宇宙飛行（4/12）／ベルリンの壁建設開始（8月）</text>
<rect x="2748" y="334" width="44" height="26" rx="3" fill="#22c55e" opacity="0.85"/>
<rect x="2748" y="360" width="44" height="52" rx="3" fill="#ef4444" opacity="0.85"/>
<text x="2770" y="488" fill="#f1f5f9" font-size="15" font-weight="700" text-anchor="middle">1962</text>
<text x="2770" y="506" fill="#94a3b8" font-size="11" text-anchor="middle">昭和37年</text>
<text x="2770" y="526" fill="#cbd5e1" font-size="10" text-anchor="middle" transform="rotate(12 2770 526)">キューバ危機（10月、約13日間）— 冷戦下で核戦争に最接近</text>
<rect x="2868" y="334" width="44" height="26" rx="3" fill="#22c55e" opacity="0.85"/>
<rect x="2868" y="360" width="44" height="26" rx="3" fill="#ef4444" opacity="0.85"/>
<text x="2890" y="488" fill="#f1f5f9" font-size="15" font-weight="700" text-anchor="middle">1963</text>
<text x="2890" y="506" fill="#94a3b8" font-size="11" text-anchor="middle">昭和38年</text>
<text x="2890" y="526" fill="#cbd5e1" font-size="10" text-anchor="middle" transform="rotate(12 2890 526)">GATT11条国へ移行（2月）— 国際収支を理由とする輸入制限ができなくなる</text>
<rect x="2988" y="334" width="44" height="26" rx="3" fill="#22c55e" opacity="0.85"/>
<rect x="2988" y="360" width="44" height="26" rx="3" fill="#ef4444" opacity="0.85"/>
<text x="3010" y="488" fill="#f1f5f9" font-size="15" font-weight="700" text-anchor="middle">1964</text>
<text x="3010" y="506" fill="#94a3b8" font-size="11" text-anchor="middle">昭和39年</text>
<text x="3010" y="526" fill="#cbd5e1" font-size="10" text-anchor="middle" transform="rotate(12 3010 526)">東海道新幹線 開業（10/1）／東京オリンピック開幕（10/10）</text>
<rect x="3108" y="308" width="44" height="52" rx="3" fill="#22c55e" opacity="0.85"/>
<rect x="3108" y="360" width="44" height="26" rx="3" fill="#ef4444" opacity="0.85"/>
<text x="3130" y="488" fill="#f1f5f9" font-size="15" font-weight="700" text-anchor="middle">1965</text>
<text x="3130" y="506" fill="#94a3b8" font-size="11" text-anchor="middle">昭和40年</text>
<text x="3130" y="526" fill="#cbd5e1" font-size="10" text-anchor="middle" transform="rotate(12 3130 526)">米軍が北爆「ローリング・サンダー」開始（3/2）／海兵隊ダナン上陸（3/8）</text>
<rect x="3228" y="308" width="44" height="52" rx="3" fill="#22c55e" opacity="0.85"/>
<rect x="3228" y="360" width="44" height="52" rx="3" fill="#ef4444" opacity="0.85"/>
<text x="3250" y="488" fill="#f1f5f9" font-size="15" font-weight="700" text-anchor="middle">1966</text>
<text x="3250" y="506" fill="#94a3b8" font-size="11" text-anchor="middle">昭和41年</text>
<text x="3250" y="526" fill="#cbd5e1" font-size="10" text-anchor="middle" transform="rotate(12 3250 526)">米国：ベトナム戦費拡大で需要過熱・インフレ圧力台頭、FRB引き締めでDJIA年…</text>
<rect x="3348" y="334" width="44" height="26" rx="3" fill="#22c55e" opacity="0.85"/>
<rect x="3348" y="360" width="44" height="26" rx="3" fill="#ef4444" opacity="0.85"/>
<text x="3370" y="488" fill="#f1f5f9" font-size="15" font-weight="700" text-anchor="middle">1967</text>
<text x="3370" y="506" fill="#94a3b8" font-size="11" text-anchor="middle">昭和42年</text>
<text x="3370" y="526" fill="#cbd5e1" font-size="10" text-anchor="middle" transform="rotate(12 3370 526)">EC（欧州共同体）執政機関統合が発効（7/1）</text>
<rect x="3468" y="334" width="44" height="26" rx="3" fill="#22c55e" opacity="0.85"/>
<rect x="3468" y="360" width="44" height="26" rx="3" fill="#ef4444" opacity="0.85"/>
<text x="3490" y="488" fill="#f1f5f9" font-size="15" font-weight="700" text-anchor="middle">1968</text>
<text x="3490" y="506" fill="#94a3b8" font-size="11" text-anchor="middle">昭和43年</text>
<text x="3490" y="526" fill="#cbd5e1" font-size="10" text-anchor="middle" transform="rotate(12 3490 526)">ロンドン金プール崩壊→金の二重価格制へ（3月、ブレトンウッズ動揺）</text>
<rect x="3588" y="334" width="44" height="26" rx="3" fill="#22c55e" opacity="0.85"/>
<rect x="3588" y="360" width="44" height="26" rx="3" fill="#ef4444" opacity="0.85"/>
<text x="3610" y="488" fill="#f1f5f9" font-size="15" font-weight="700" text-anchor="middle">1969</text>
<text x="3610" y="506" fill="#94a3b8" font-size="11" text-anchor="middle">昭和44年</text>
<text x="3610" y="526" fill="#cbd5e1" font-size="10" text-anchor="middle" transform="rotate(12 3610 526)">東名高速道路 全線開通（5月、東京〜小牧）</text>
<rect x="3708" y="334" width="44" height="26" rx="3" fill="#22c55e" opacity="0.85"/>
<rect x="3708" y="360" width="44" height="26" rx="3" fill="#ef4444" opacity="0.85"/>
<text x="3730" y="488" fill="#f1f5f9" font-size="15" font-weight="700" text-anchor="middle">1970</text>
<text x="3730" y="506" fill="#94a3b8" font-size="11" text-anchor="middle">昭和45年</text>
<text x="3730" y="526" fill="#cbd5e1" font-size="10" text-anchor="middle" transform="rotate(12 3730 526)">大阪万博（EXPO\</text>
<rect x="3828" y="334" width="44" height="26" rx="3" fill="#22c55e" opacity="0.85"/>
<rect x="3828" y="360" width="44" height="26" rx="3" fill="#ef4444" opacity="0.85"/>
<text x="3850" y="488" fill="#f1f5f9" font-size="15" font-weight="700" text-anchor="middle">1971</text>
<text x="3850" y="506" fill="#94a3b8" font-size="11" text-anchor="middle">昭和46年</text>
<text x="3850" y="526" fill="#cbd5e1" font-size="10" text-anchor="middle" transform="rotate(12 3850 526)">ニクソン・ショック（8/15）— 金・ドル交換停止＝ブレトンウッズ体制崩壊・1…</text>
<rect x="3948" y="334" width="44" height="26" rx="3" fill="#22c55e" opacity="0.85"/>
<rect x="3948" y="360" width="44" height="26" rx="3" fill="#ef4444" opacity="0.85"/>
<text x="3970" y="488" fill="#f1f5f9" font-size="15" font-weight="700" text-anchor="middle">1972</text>
<text x="3970" y="506" fill="#94a3b8" font-size="11" text-anchor="middle">昭和47年</text>
<text x="3970" y="526" fill="#cbd5e1" font-size="10" text-anchor="middle" transform="rotate(12 3970 526)">ニクソン米大統領訪中（2/21–28）— 米中接近</text>
<rect x="4068" y="334" width="44" height="26" rx="3" fill="#22c55e" opacity="0.85"/>
<rect x="4068" y="360" width="44" height="26" rx="3" fill="#ef4444" opacity="0.85"/>
<text x="4090" y="488" fill="#f1f5f9" font-size="15" font-weight="700" text-anchor="middle">1973</text>
<text x="4090" y="506" fill="#94a3b8" font-size="11" text-anchor="middle">昭和48年</text>
<text x="4090" y="526" fill="#cbd5e1" font-size="10" text-anchor="middle" transform="rotate(12 4090 526)">日本が変動相場制へ移行（2/14）／主要国が2〜3月に変動相場制へ（ブレトンウ…</text>
<rect x="4188" y="334" width="44" height="26" rx="3" fill="#22c55e" opacity="0.85"/>
<rect x="4188" y="360" width="44" height="26" rx="3" fill="#ef4444" opacity="0.85"/>
<text x="4210" y="488" fill="#f1f5f9" font-size="15" font-weight="700" text-anchor="middle">1974</text>
<text x="4210" y="506" fill="#94a3b8" font-size="11" text-anchor="middle">昭和49年</text>
<text x="4210" y="526" fill="#cbd5e1" font-size="10" text-anchor="middle" transform="rotate(12 4210 526)">第一次石油危機の影響本格化 — 先進国で世界同時不況・スタグフレーション</text>
<rect x="4308" y="334" width="44" height="26" rx="3" fill="#22c55e" opacity="0.85"/>
<rect x="4308" y="360" width="44" height="26" rx="3" fill="#ef4444" opacity="0.85"/>
<text x="4330" y="488" fill="#f1f5f9" font-size="15" font-weight="700" text-anchor="middle">1975</text>
<text x="4330" y="506" fill="#94a3b8" font-size="11" text-anchor="middle">昭和50年</text>
<text x="4330" y="526" fill="#cbd5e1" font-size="10" text-anchor="middle" transform="rotate(12 4330 526)">サイゴン陥落（4/30）— ベトナム戦争が事実上終結</text>
<rect x="4428" y="308" width="44" height="52" rx="3" fill="#22c55e" opacity="0.85"/>
<rect x="4428" y="360" width="44" height="26" rx="3" fill="#ef4444" opacity="0.85"/>
<text x="4450" y="488" fill="#f1f5f9" font-size="15" font-weight="700" text-anchor="middle">1976</text>
<text x="4450" y="506" fill="#94a3b8" font-size="11" text-anchor="middle">昭和51年</text>
<text x="4450" y="526" fill="#cbd5e1" font-size="10" text-anchor="middle" transform="rotate(12 4450 526)">ロッキード事件で田中角栄前首相を逮捕（7/27）</text>
<rect x="4548" y="308" width="44" height="52" rx="3" fill="#22c55e" opacity="0.85"/>
<rect x="4548" y="360" width="44" height="26" rx="3" fill="#ef4444" opacity="0.85"/>
<text x="4570" y="488" fill="#f1f5f9" font-size="15" font-weight="700" text-anchor="middle">1977</text>
<text x="4570" y="506" fill="#94a3b8" font-size="11" text-anchor="middle">昭和52年</text>
<text x="4570" y="526" fill="#cbd5e1" font-size="10" text-anchor="middle" transform="rotate(12 4570 526)">カーター米大統領就任（1月）／ロンドン・サミットで機関車論（5月）</text>
<rect x="4668" y="334" width="44" height="26" rx="3" fill="#22c55e" opacity="0.85"/>
<rect x="4668" y="360" width="44" height="26" rx="3" fill="#ef4444" opacity="0.85"/>
<text x="4690" y="488" fill="#f1f5f9" font-size="15" font-weight="700" text-anchor="middle">1978</text>
<text x="4690" y="506" fill="#94a3b8" font-size="11" text-anchor="middle">昭和53年</text>
<text x="4690" y="526" fill="#cbd5e1" font-size="10" text-anchor="middle" transform="rotate(12 4690 526)">新東京国際空港（成田）開港（5/20）</text>
<rect x="4788" y="308" width="44" height="52" rx="3" fill="#22c55e" opacity="0.85"/>
<rect x="4788" y="360" width="44" height="26" rx="3" fill="#ef4444" opacity="0.85"/>
<text x="4810" y="488" fill="#f1f5f9" font-size="15" font-weight="700" text-anchor="middle">1979</text>
<text x="4810" y="506" fill="#94a3b8" font-size="11" text-anchor="middle">昭和54年</text>
<text x="4810" y="526" fill="#cbd5e1" font-size="10" text-anchor="middle" transform="rotate(12 4810 526)">第二次石油危機（イラン革命を契機に原油価格が約1年で2倍超）</text>
<rect x="4908" y="334" width="44" height="26" rx="3" fill="#22c55e" opacity="0.85"/>
<rect x="4908" y="360" width="44" height="26" rx="3" fill="#ef4444" opacity="0.85"/>
<text x="4930" y="488" fill="#f1f5f9" font-size="15" font-weight="700" text-anchor="middle">1980</text>
<text x="4930" y="506" fill="#94a3b8" font-size="11" text-anchor="middle">昭和55年</text>
<text x="4930" y="526" fill="#cbd5e1" font-size="10" text-anchor="middle" transform="rotate(12 4930 526)">第二次石油危機による世界的インフレ再燃（米CPI約13%）</text>
<rect x="5028" y="334" width="44" height="26" rx="3" fill="#22c55e" opacity="0.85"/>
<rect x="5028" y="360" width="44" height="26" rx="3" fill="#ef4444" opacity="0.85"/>
<text x="5050" y="488" fill="#f1f5f9" font-size="15" font-weight="700" text-anchor="middle">1981</text>
<text x="5050" y="506" fill="#94a3b8" font-size="11" text-anchor="middle">昭和56年</text>
<text x="5050" y="526" fill="#cbd5e1" font-size="10" text-anchor="middle" transform="rotate(12 5050 526)">レーガン大統領就任（1月）・レーガノミクス始動</text>
<rect x="5148" y="308" width="44" height="52" rx="3" fill="#22c55e" opacity="0.85"/>
<rect x="5148" y="360" width="44" height="78" rx="3" fill="#ef4444" opacity="0.85"/>
<text x="5170" y="488" fill="#f1f5f9" font-size="15" font-weight="700" text-anchor="middle">1982</text>
<text x="5170" y="506" fill="#94a3b8" font-size="11" text-anchor="middle">昭和57年</text>
<text x="5170" y="526" fill="#cbd5e1" font-size="10" text-anchor="middle" transform="rotate(12 5170 526)">メキシコが債務返済不能を通告（8/20）— ラテンアメリカ債務危機の表面化</text>
<rect x="5268" y="308" width="44" height="52" rx="3" fill="#22c55e" opacity="0.85"/>
<rect x="5268" y="360" width="44" height="26" rx="3" fill="#ef4444" opacity="0.85"/>
<text x="5290" y="488" fill="#f1f5f9" font-size="15" font-weight="700" text-anchor="middle">1983</text>
<text x="5290" y="506" fill="#94a3b8" font-size="11" text-anchor="middle">昭和58年</text>
<text x="5290" y="526" fill="#cbd5e1" font-size="10" text-anchor="middle" transform="rotate(12 5290 526)">米国でレーガン景気が始動（実質GNP約3.6%増・ディスインフレ・金利低下）</text>
<rect x="5388" y="334" width="44" height="26" rx="3" fill="#22c55e" opacity="0.85"/>
<rect x="5388" y="360" width="44" height="26" rx="3" fill="#ef4444" opacity="0.85"/>
<text x="5410" y="488" fill="#f1f5f9" font-size="15" font-weight="700" text-anchor="middle">1984</text>
<text x="5410" y="506" fill="#94a3b8" font-size="11" text-anchor="middle">昭和59年</text>
<text x="5410" y="526" fill="#cbd5e1" font-size="10" text-anchor="middle" transform="rotate(12 5410 526)">日経平均が史上初めて1万円台を突破（1/9）</text>
<rect x="5508" y="334" width="44" height="26" rx="3" fill="#22c55e" opacity="0.85"/>
<rect x="5508" y="360" width="44" height="26" rx="3" fill="#ef4444" opacity="0.85"/>
<text x="5530" y="488" fill="#f1f5f9" font-size="15" font-weight="700" text-anchor="middle">1985</text>
<text x="5530" y="506" fill="#94a3b8" font-size="11" text-anchor="middle">昭和60年</text>
<text x="5530" y="526" fill="#cbd5e1" font-size="10" text-anchor="middle" transform="rotate(12 5530 526)">プラザ合意（9/22）— G5がドル高是正へ協調介入で合意</text>
<rect x="5628" y="334" width="44" height="26" rx="3" fill="#22c55e" opacity="0.85"/>
<rect x="5628" y="360" width="44" height="52" rx="3" fill="#ef4444" opacity="0.85"/>
<text x="5650" y="488" fill="#f1f5f9" font-size="15" font-weight="700" text-anchor="middle">1986</text>
<text x="5650" y="506" fill="#94a3b8" font-size="11" text-anchor="middle">昭和61年</text>
<text x="5650" y="526" fill="#cbd5e1" font-size="10" text-anchor="middle" transform="rotate(12 5650 526)">原油価格の急落（逆オイルショック、約4か月で6〜7割下落）</text>
<rect x="5748" y="334" width="44" height="26" rx="3" fill="#22c55e" opacity="0.85"/>
<rect x="5748" y="360" width="44" height="26" rx="3" fill="#ef4444" opacity="0.85"/>
<text x="5770" y="488" fill="#f1f5f9" font-size="15" font-weight="700" text-anchor="middle">1987</text>
<text x="5770" y="506" fill="#94a3b8" font-size="11" text-anchor="middle">昭和62年</text>
<text x="5770" y="526" fill="#cbd5e1" font-size="10" text-anchor="middle" transform="rotate(12 5770 526)">NTT株上場（2/9）／ルーブル合意（2/22、為替安定化で協調）</text>
<rect x="70" y="584" width="14" height="14" rx="2" fill="#22c55e"/>
<text x="90" y="596" fill="#cbd5e1" font-size="12">拡大傾向の産業数</text>
<rect x="230" y="584" width="14" height="14" rx="2" fill="#ef4444"/>
<text x="250" y="596" fill="#cbd5e1" font-size="12">縮小傾向の産業数</text>
<text x="5830" y="596" fill="#64748b" font-size="11" text-anchor="end">出典: economicHistoryKnowledge.ts（各年 ≥2 出典・うち権威ある出典1件以上）</text>
</svg>
