<svg xmlns="http://www.w3.org/2000/svg" width="2230" height="602" viewBox="0 0 2230 602" font-family="'Hiragino Sans','Noto Sans JP',sans-serif">
<rect width="2230" height="602" fill="#0f172a"/>
<text x="60" y="36" fill="#f1f5f9" font-size="22" font-weight="700">資産クラス別 年次推移（株式・不動産・仮想通貨）</text>
<text x="60" y="60" fill="#94a3b8" font-size="12">各系列を自系列の最大値=100%に正規化して重ね描き。欠損(null=未照合／その年に存在しない資産)は線を引かない。</text>
<line x1="80" y1="90" x2="80" y2="450" stroke="#475569"/>
<line x1="80" y1="450" x2="2180" y2="450" stroke="#475569"/>
<line x1="80" y1="450" x2="2180" y2="450" stroke="#1e293b"/>
<text x="72" y="454" fill="#64748b" font-size="10" text-anchor="end">0%</text>
<line x1="80" y1="360" x2="2180" y2="360" stroke="#1e293b"/>
<text x="72" y="364" fill="#64748b" font-size="10" text-anchor="end">25%</text>
<line x1="80" y1="270" x2="2180" y2="270" stroke="#1e293b"/>
<text x="72" y="274" fill="#64748b" font-size="10" text-anchor="end">50%</text>
<line x1="80" y1="180" x2="2180" y2="180" stroke="#1e293b"/>
<text x="72" y="184" fill="#64748b" font-size="10" text-anchor="end">75%</text>
<line x1="80" y1="90" x2="2180" y2="90" stroke="#1e293b"/>
<text x="72" y="94" fill="#64748b" font-size="10" text-anchor="end">100%</text>
<text x="80" y="468" fill="#cbd5e1" font-size="10" text-anchor="middle">1940</text>
<text x="200" y="468" fill="#cbd5e1" font-size="10" text-anchor="middle">1942</text>
<text x="320" y="468" fill="#cbd5e1" font-size="10" text-anchor="middle">1944</text>
<text x="440" y="468" fill="#cbd5e1" font-size="10" text-anchor="middle">1946</text>
<text x="560" y="468" fill="#cbd5e1" font-size="10" text-anchor="middle">1948</text>
<text x="680" y="468" fill="#cbd5e1" font-size="10" text-anchor="middle">1950</text>
<text x="800" y="468" fill="#cbd5e1" font-size="10" text-anchor="middle">1952</text>
<text x="920" y="468" fill="#cbd5e1" font-size="10" text-anchor="middle">1954</text>
<text x="1040" y="468" fill="#cbd5e1" font-size="10" text-anchor="middle">1956</text>
<text x="1160" y="468" fill="#cbd5e1" font-size="10" text-anchor="middle">1958</text>
<text x="1280" y="468" fill="#cbd5e1" font-size="10" text-anchor="middle">1960</text>
<text x="1400" y="468" fill="#cbd5e1" font-size="10" text-anchor="middle">1962</text>
<text x="1520" y="468" fill="#cbd5e1" font-size="10" text-anchor="middle">1964</text>
<text x="1640" y="468" fill="#cbd5e1" font-size="10" text-anchor="middle">1966</text>
<text x="1760" y="468" fill="#cbd5e1" font-size="10" text-anchor="middle">1968</text>
<text x="1880" y="468" fill="#cbd5e1" font-size="10" text-anchor="middle">1970</text>
<text x="2000" y="468" fill="#cbd5e1" font-size="10" text-anchor="middle">1972</text>
<text x="2120" y="468" fill="#cbd5e1" font-size="10" text-anchor="middle">1974</text>
<circle cx="80" cy="403.7" r="3" fill="#38bdf8"/>
<circle cx="140" cy="410.8" r="3" fill="#38bdf8"/>
<circle cx="200" cy="407.9" r="3" fill="#38bdf8"/>
<circle cx="260" cy="402.0" r="3" fill="#38bdf8"/>
<circle cx="320" cy="396.2" r="3" fill="#38bdf8"/>
<circle cx="380" cy="381.9" r="3" fill="#38bdf8"/>
<circle cx="440" cy="387.5" r="3" fill="#38bdf8"/>
<circle cx="500" cy="386.1" r="3" fill="#38bdf8"/>
<circle cx="560" cy="387.4" r="3" fill="#38bdf8"/>
<circle cx="620" cy="379.4" r="3" fill="#38bdf8"/>
<circle cx="680" cy="366.9" r="3" fill="#38bdf8"/>
<circle cx="740" cy="355.0" r="3" fill="#38bdf8"/>
<circle cx="800" cy="347.0" r="3" fill="#38bdf8"/>
<circle cx="860" cy="350.9" r="3" fill="#38bdf8"/>
<circle cx="920" cy="307.3" r="3" fill="#38bdf8"/>
<circle cx="980" cy="277.6" r="3" fill="#38bdf8"/>
<circle cx="1040" cy="273.7" r="3" fill="#38bdf8"/>
<circle cx="1100" cy="296.2" r="3" fill="#38bdf8"/>
<circle cx="1160" cy="244.0" r="3" fill="#38bdf8"/>
<circle cx="1220" cy="210.2" r="3" fill="#38bdf8"/>
<circle cx="1280" cy="232.6" r="3" fill="#38bdf8"/>
<circle cx="1340" cy="192.0" r="3" fill="#38bdf8"/>
<circle cx="1400" cy="219.9" r="3" fill="#38bdf8"/>
<circle cx="1460" cy="180.7" r="3" fill="#38bdf8"/>
<circle cx="1520" cy="141.5" r="3" fill="#38bdf8"/>
<circle cx="1580" cy="107.9" r="3" fill="#38bdf8"/>
<circle cx="1640" cy="172.7" r="3" fill="#38bdf8"/>
<circle cx="1700" cy="130.6" r="3" fill="#38bdf8"/>
<circle cx="1760" cy="116.9" r="3" fill="#38bdf8"/>
<circle cx="1820" cy="167.5" r="3" fill="#38bdf8"/>
<circle cx="1880" cy="153.9" r="3" fill="#38bdf8"/>
<circle cx="1940" cy="135.8" r="3" fill="#38bdf8"/>
<circle cx="2000" cy="90.0" r="3" fill="#38bdf8"/>
<circle cx="2060" cy="149.7" r="3" fill="#38bdf8"/>
<circle cx="2120" cy="232.5" r="3" fill="#38bdf8"/>
<circle cx="2180" cy="149.2" r="3" fill="#38bdf8"/>
<path d="M80,403.7 L140,410.8 L200,407.9 L260,402.0 L320,396.2 L380,381.9 L440,387.5 L500,386.1 L560,387.4 L620,379.4 L680,366.9 L740,355.0 L800,347.0 L860,350.9 L920,307.3 L980,277.6 L1040,273.7 L1100,296.2 L1160,244.0 L1220,210.2 L1280,232.6 L1340,192.0 L1400,219.9 L1460,180.7 L1520,141.5 L1580,107.9 L1640,172.7 L1700,130.6 L1760,116.9 L1820,167.5 L1880,153.9 L1940,135.8 L2000,90.0 L2060,149.7 L2120,232.5 L2180,149.2" fill="none" stroke="#38bdf8" stroke-width="2"/>
<circle cx="2180" cy="90.0" r="3" fill="#f97316"/>
<path d="M2180,90.0" fill="none" stroke="#f97316" stroke-width="2"/>
<rect x="60" y="486" width="13" height="13" rx="2" fill="#38bdf8"/>
<text x="78" y="497" fill="#cbd5e1" font-size="11">ダウ平均(米株, 年末USD) — データ36年（直近 852.41）</text>
<rect x="60" y="504" width="13" height="13" rx="2" fill="#f97316"/>
<text x="78" y="515" fill="#cbd5e1" font-size="11">日経平均(日本株, 年末円) — データ1年（直近 4342.06）</text>
<rect x="60" y="522" width="13" height="13" rx="2" fill="#a3e635"/>
<text x="78" y="533" fill="#cbd5e1" font-size="11">市街地価格指数(不動産, 1936/9=100) — データなし（N/A・未照合またはその年に存在しない資産）</text>
<rect x="60" y="540" width="13" height="13" rx="2" fill="#facc15"/>
<text x="78" y="551" fill="#cbd5e1" font-size="11">ビットコイン(仮想通貨, 年末USD) — データなし（N/A・未照合またはその年に存在しない資産）</text>
<text x="2200" y="594" fill="#64748b" font-size="10" text-anchor="end">出典: economicHistoryKnowledge.ts ASSET_SERIES（DJIA=MeasuringWorth/FRED 他・確証値）</text>
</svg>
