<svg xmlns="http://www.w3.org/2000/svg" width="5150" height="620" viewBox="0 0 5150 620" font-family="'Hiragino Sans','Noto Sans JP',sans-serif">
<rect width="5150" height="620" fill="#0f172a"/>
<text x="70" y="40" fill="#f1f5f9" font-size="24" font-weight="700">世界経済・日本経済 年表（1940〜） — 出典確証済み</text>
<text x="70" y="66" fill="#94a3b8" font-size="13">上向き=拡大産業の傾向数 / 下向き=縮小産業の傾向数（出典で裏付く定性傾向の件数。厳密な経済指標ではない）</text>
<line x1="60" y1="360" x2="5110" y2="360" stroke="#475569" stroke-width="1.5"/>
<line x1="60" y1="334" x2="5110" y2="334" stroke="#1e293b" stroke-width="1"/>
<line x1="60" y1="386" x2="5110" y2="386" stroke="#1e293b" stroke-width="1"/>
<text x="54" y="338" fill="#64748b" font-size="11" text-anchor="end">1</text>
<text x="54" y="390" fill="#64748b" font-size="11" text-anchor="end">1</text>
<line x1="60" y1="308" x2="5110" y2="308" stroke="#1e293b" stroke-width="1"/>
<line x1="60" y1="412" x2="5110" y2="412" stroke="#1e293b" stroke-width="1"/>
<text x="54" y="312" fill="#64748b" font-size="11" text-anchor="end">2</text>
<text x="54" y="416" fill="#64748b" font-size="11" text-anchor="end">2</text>
<text x="54" y="298" fill="#22c55e" font-size="11" text-anchor="end">拡大</text>
<text x="54" y="432" fill="#ef4444" font-size="11" text-anchor="end">縮小</text>
<rect x="108" y="334" width="44" height="26" rx="3" fill="#22c55e" opacity="0.85"/>
<rect x="108" y="360" width="44" height="26" rx="3" fill="#ef4444" opacity="0.85"/>
<text x="130" y="462" fill="#f1f5f9" font-size="15" font-weight="700" text-anchor="middle">1940</text>
<text x="130" y="480" fill="#94a3b8" font-size="11" text-anchor="middle">昭和15年</text>
<text x="130" y="500" fill="#cbd5e1" font-size="10" text-anchor="middle" transform="rotate(12 130 500)">ドイツの西欧侵攻（ノルウェー・低地諸国・フランス陥落）とバトル・オブ・ブリテン</text>
<rect x="228" y="334" width="44" height="26" rx="3" fill="#22c55e" opacity="0.85"/>
<rect x="228" y="360" width="44" height="26" rx="3" fill="#ef4444" opacity="0.85"/>
<text x="250" y="462" fill="#f1f5f9" font-size="15" font-weight="700" text-anchor="middle">1941</text>
<text x="250" y="480" fill="#94a3b8" font-size="11" text-anchor="middle">昭和16年</text>
<text x="250" y="500" fill="#cbd5e1" font-size="10" text-anchor="middle" transform="rotate(12 250 500)">米武器貸与法（Lend-Lease Act）成立（3/11）— 米経済の戦時動…</text>
<rect x="348" y="334" width="44" height="26" rx="3" fill="#22c55e" opacity="0.85"/>
<rect x="348" y="360" width="44" height="26" rx="3" fill="#ef4444" opacity="0.85"/>
<text x="370" y="462" fill="#f1f5f9" font-size="15" font-weight="700" text-anchor="middle">1942</text>
<text x="370" y="480" fill="#94a3b8" font-size="11" text-anchor="middle">昭和17年</text>
<text x="370" y="500" fill="#cbd5e1" font-size="10" text-anchor="middle" transform="rotate(12 370 500)">ミッドウェー海戦（6/3–6）— 太平洋戦争の転換点</text>
<rect x="468" y="334" width="44" height="26" rx="3" fill="#22c55e" opacity="0.85"/>
<rect x="468" y="360" width="44" height="26" rx="3" fill="#ef4444" opacity="0.85"/>
<text x="490" y="462" fill="#f1f5f9" font-size="15" font-weight="700" text-anchor="middle">1943</text>
<text x="490" y="480" fill="#94a3b8" font-size="11" text-anchor="middle">昭和18年</text>
<text x="490" y="500" fill="#cbd5e1" font-size="10" text-anchor="middle" transform="rotate(12 490 500)">スターリングラードの戦い終結（2/2、ドイツ第6軍降伏）— 独ソ戦の転換点</text>
<rect x="588" y="334" width="44" height="26" rx="3" fill="#22c55e" opacity="0.85"/>
<rect x="588" y="360" width="44" height="26" rx="3" fill="#ef4444" opacity="0.85"/>
<text x="610" y="462" fill="#f1f5f9" font-size="15" font-weight="700" text-anchor="middle">1944</text>
<text x="610" y="480" fill="#94a3b8" font-size="11" text-anchor="middle">昭和19年</text>
<text x="610" y="500" fill="#cbd5e1" font-size="10" text-anchor="middle" transform="rotate(12 610 500)">ノルマンディー上陸作戦（6/6）</text>
<rect x="708" y="334" width="44" height="26" rx="3" fill="#22c55e" opacity="0.85"/>
<rect x="708" y="360" width="44" height="26" rx="3" fill="#ef4444" opacity="0.85"/>
<text x="730" y="462" fill="#f1f5f9" font-size="15" font-weight="700" text-anchor="middle">1945</text>
<text x="730" y="480" fill="#94a3b8" font-size="11" text-anchor="middle">昭和20年</text>
<text x="730" y="500" fill="#cbd5e1" font-size="10" text-anchor="middle" transform="rotate(12 730 500)">第二次世界大戦の終結（対日戦は8/15玉音放送・9/2降伏文書調印）</text>
<rect x="828" y="308" width="44" height="52" rx="3" fill="#22c55e" opacity="0.85"/>
<rect x="828" y="360" width="44" height="26" rx="3" fill="#ef4444" opacity="0.85"/>
<text x="850" y="462" fill="#f1f5f9" font-size="15" font-weight="700" text-anchor="middle">1946</text>
<text x="850" y="480" fill="#94a3b8" font-size="11" text-anchor="middle">昭和21年</text>
<text x="850" y="500" fill="#cbd5e1" font-size="10" text-anchor="middle" transform="rotate(12 850 500)">金融緊急措置令（2月）— 預金封鎖・新円切替で通貨膨張を抑制</text>
<rect x="948" y="308" width="44" height="52" rx="3" fill="#22c55e" opacity="0.85"/>
<rect x="948" y="360" width="44" height="26" rx="3" fill="#ef4444" opacity="0.85"/>
<text x="970" y="462" fill="#f1f5f9" font-size="15" font-weight="700" text-anchor="middle">1947</text>
<text x="970" y="480" fill="#94a3b8" font-size="11" text-anchor="middle">昭和22年</text>
<text x="970" y="500" fill="#cbd5e1" font-size="10" text-anchor="middle" transform="rotate(12 970 500)">トルーマン・ドクトリン（3/12）／マーシャル・プラン提唱（6/5）</text>
<rect x="1068" y="308" width="44" height="52" rx="3" fill="#22c55e" opacity="0.85"/>
<rect x="1068" y="360" width="44" height="52" rx="3" fill="#ef4444" opacity="0.85"/>
<text x="1090" y="462" fill="#f1f5f9" font-size="15" font-weight="700" text-anchor="middle">1948</text>
<text x="1090" y="480" fill="#94a3b8" font-size="11" text-anchor="middle">昭和23年</text>
<text x="1090" y="500" fill="#cbd5e1" font-size="10" text-anchor="middle" transform="rotate(12 1090 500)">マーシャル・プラン（経済協力法）成立（4/3）— 西欧復興本格化</text>
<rect x="1188" y="308" width="44" height="52" rx="3" fill="#22c55e" opacity="0.85"/>
<rect x="1188" y="360" width="44" height="26" rx="3" fill="#ef4444" opacity="0.85"/>
<text x="1210" y="462" fill="#f1f5f9" font-size="15" font-weight="700" text-anchor="middle">1949</text>
<text x="1210" y="480" fill="#94a3b8" font-size="11" text-anchor="middle">昭和24年</text>
<text x="1210" y="500" fill="#cbd5e1" font-size="10" text-anchor="middle" transform="rotate(12 1210 500)">ドッジ・ライン発表（3/7）— 超均衡予算でインフレ強制収束</text>
<rect x="1308" y="334" width="44" height="26" rx="3" fill="#22c55e" opacity="0.85"/>
<rect x="1308" y="360" width="44" height="26" rx="3" fill="#ef4444" opacity="0.85"/>
<text x="1330" y="462" fill="#f1f5f9" font-size="15" font-weight="700" text-anchor="middle">1950</text>
<text x="1330" y="480" fill="#94a3b8" font-size="11" text-anchor="middle">昭和25年</text>
<text x="1330" y="500" fill="#cbd5e1" font-size="10" text-anchor="middle" transform="rotate(12 1330 500)">朝鮮戦争勃発（6/25）— 冷戦初の本格的軍事衝突</text>
<rect x="1428" y="334" width="44" height="26" rx="3" fill="#22c55e" opacity="0.85"/>
<rect x="1428" y="360" width="44" height="26" rx="3" fill="#ef4444" opacity="0.85"/>
<text x="1450" y="462" fill="#f1f5f9" font-size="15" font-weight="700" text-anchor="middle">1951</text>
<text x="1450" y="480" fill="#94a3b8" font-size="11" text-anchor="middle">昭和26年</text>
<text x="1450" y="500" fill="#cbd5e1" font-size="10" text-anchor="middle" transform="rotate(12 1450 500)">サンフランシスコ講和条約・日米安全保障条約に調印（9/8、翌1952年発効）</text>
<rect x="1548" y="334" width="44" height="26" rx="3" fill="#22c55e" opacity="0.85"/>
<rect x="1548" y="360" width="44" height="26" rx="3" fill="#ef4444" opacity="0.85"/>
<text x="1570" y="462" fill="#f1f5f9" font-size="15" font-weight="700" text-anchor="middle">1952</text>
<text x="1570" y="480" fill="#94a3b8" font-size="11" text-anchor="middle">昭和27年</text>
<text x="1570" y="500" fill="#cbd5e1" font-size="10" text-anchor="middle" transform="rotate(12 1570 500)">サンフランシスコ講和条約・日米安保条約 発効（4/28）— 占領終結・主権回復</text>
<rect x="1668" y="334" width="44" height="26" rx="3" fill="#22c55e" opacity="0.85"/>
<rect x="1668" y="360" width="44" height="26" rx="3" fill="#ef4444" opacity="0.85"/>
<text x="1690" y="462" fill="#f1f5f9" font-size="15" font-weight="700" text-anchor="middle">1953</text>
<text x="1690" y="480" fill="#94a3b8" font-size="11" text-anchor="middle">昭和28年</text>
<text x="1690" y="500" fill="#cbd5e1" font-size="10" text-anchor="middle" transform="rotate(12 1690 500)">NHKテレビ本放送開始（2/1）／日本テレビ民放テレビ開始（8/28）</text>
<rect x="1788" y="308" width="44" height="52" rx="3" fill="#22c55e" opacity="0.85"/>
<rect x="1788" y="360" width="44" height="26" rx="3" fill="#ef4444" opacity="0.85"/>
<text x="1810" y="462" fill="#f1f5f9" font-size="15" font-weight="700" text-anchor="middle">1954</text>
<text x="1810" y="480" fill="#94a3b8" font-size="11" text-anchor="middle">昭和29年</text>
<text x="1810" y="500" fill="#cbd5e1" font-size="10" text-anchor="middle" transform="rotate(12 1810 500)">ディエンビエンフー陥落（5/7）／ジュネーブ協定（7/21）— 第一次インドシ…</text>
<rect x="1908" y="334" width="44" height="26" rx="3" fill="#22c55e" opacity="0.85"/>
<rect x="1908" y="360" width="44" height="26" rx="3" fill="#ef4444" opacity="0.85"/>
<text x="1930" y="462" fill="#f1f5f9" font-size="15" font-weight="700" text-anchor="middle">1955</text>
<text x="1930" y="480" fill="#94a3b8" font-size="11" text-anchor="middle">昭和30年</text>
<text x="1930" y="500" fill="#cbd5e1" font-size="10" text-anchor="middle" transform="rotate(12 1930 500)">ジュネーブ4巨頭会談（7月）— 戦後初の首脳会談で東西緊張が一時緩和</text>
<rect x="2028" y="334" width="44" height="26" rx="3" fill="#22c55e" opacity="0.85"/>
<rect x="2028" y="360" width="44" height="26" rx="3" fill="#ef4444" opacity="0.85"/>
<text x="2050" y="462" fill="#f1f5f9" font-size="15" font-weight="700" text-anchor="middle">1956</text>
<text x="2050" y="480" fill="#94a3b8" font-size="11" text-anchor="middle">昭和31年</text>
<text x="2050" y="500" fill="#cbd5e1" font-size="10" text-anchor="middle" transform="rotate(12 2050 500)">スエズ動乱（10–11月）／ハンガリー動乱（10/23–11/10）</text>
<rect x="2148" y="308" width="44" height="52" rx="3" fill="#22c55e" opacity="0.85"/>
<rect x="2148" y="360" width="44" height="52" rx="3" fill="#ef4444" opacity="0.85"/>
<text x="2170" y="462" fill="#f1f5f9" font-size="15" font-weight="700" text-anchor="middle">1957</text>
<text x="2170" y="480" fill="#94a3b8" font-size="11" text-anchor="middle">昭和32年</text>
<text x="2170" y="500" fill="#cbd5e1" font-size="10" text-anchor="middle" transform="rotate(12 2170 500)">ローマ条約調印（3/25）— EEC設立へ（発効1958/1/1）</text>
<rect x="2268" y="308" width="44" height="52" rx="3" fill="#22c55e" opacity="0.85"/>
<rect x="2268" y="360" width="44" height="26" rx="3" fill="#ef4444" opacity="0.85"/>
<text x="2290" y="462" fill="#f1f5f9" font-size="15" font-weight="700" text-anchor="middle">1958</text>
<text x="2290" y="480" fill="#94a3b8" font-size="11" text-anchor="middle">昭和33年</text>
<text x="2290" y="500" fill="#cbd5e1" font-size="10" text-anchor="middle" transform="rotate(12 2290 500)">ローマ条約発効（1/1）— EEC・ユーラトム発足（原加盟6か国）</text>
<rect x="2388" y="334" width="44" height="26" rx="3" fill="#22c55e" opacity="0.85"/>
<rect x="2388" y="360" width="44" height="26" rx="3" fill="#ef4444" opacity="0.85"/>
<text x="2410" y="462" fill="#f1f5f9" font-size="15" font-weight="700" text-anchor="middle">1959</text>
<text x="2410" y="480" fill="#94a3b8" font-size="11" text-anchor="middle">昭和34年</text>
<text x="2410" y="500" fill="#cbd5e1" font-size="10" text-anchor="middle" transform="rotate(12 2410 500)">皇太子ご成婚（4/10）— テレビ需要で白黒TV普及を加速（ミッチー・ブーム）</text>
<rect x="2508" y="334" width="44" height="26" rx="3" fill="#22c55e" opacity="0.85"/>
<rect x="2508" y="360" width="44" height="26" rx="3" fill="#ef4444" opacity="0.85"/>
<text x="2530" y="462" fill="#f1f5f9" font-size="15" font-weight="700" text-anchor="middle">1960</text>
<text x="2530" y="480" fill="#94a3b8" font-size="11" text-anchor="middle">昭和35年</text>
<text x="2530" y="500" fill="#cbd5e1" font-size="10" text-anchor="middle" transform="rotate(12 2530 500)">60年安保闘争が頂点（6月）→ 岸内閣退陣／池田内閣成立（7月）</text>
<rect x="2628" y="308" width="44" height="52" rx="3" fill="#22c55e" opacity="0.85"/>
<rect x="2628" y="360" width="44" height="26" rx="3" fill="#ef4444" opacity="0.85"/>
<text x="2650" y="462" fill="#f1f5f9" font-size="15" font-weight="700" text-anchor="middle">1961</text>
<text x="2650" y="480" fill="#94a3b8" font-size="11" text-anchor="middle">昭和36年</text>
<text x="2650" y="500" fill="#cbd5e1" font-size="10" text-anchor="middle" transform="rotate(12 2650 500)">ガガーリン人類初の有人宇宙飛行（4/12）／ベルリンの壁建設開始（8月）</text>
<rect x="2748" y="334" width="44" height="26" rx="3" fill="#22c55e" opacity="0.85"/>
<rect x="2748" y="360" width="44" height="52" rx="3" fill="#ef4444" opacity="0.85"/>
<text x="2770" y="462" fill="#f1f5f9" font-size="15" font-weight="700" text-anchor="middle">1962</text>
<text x="2770" y="480" fill="#94a3b8" font-size="11" text-anchor="middle">昭和37年</text>
<text x="2770" y="500" fill="#cbd5e1" font-size="10" text-anchor="middle" transform="rotate(12 2770 500)">キューバ危機（10月、約13日間）— 冷戦下で核戦争に最接近</text>
<rect x="2868" y="334" width="44" height="26" rx="3" fill="#22c55e" opacity="0.85"/>
<rect x="2868" y="360" width="44" height="26" rx="3" fill="#ef4444" opacity="0.85"/>
<text x="2890" y="462" fill="#f1f5f9" font-size="15" font-weight="700" text-anchor="middle">1963</text>
<text x="2890" y="480" fill="#94a3b8" font-size="11" text-anchor="middle">昭和38年</text>
<text x="2890" y="500" fill="#cbd5e1" font-size="10" text-anchor="middle" transform="rotate(12 2890 500)">GATT11条国へ移行（2月）— 国際収支を理由とする輸入制限ができなくなる</text>
<rect x="2988" y="334" width="44" height="26" rx="3" fill="#22c55e" opacity="0.85"/>
<rect x="2988" y="360" width="44" height="26" rx="3" fill="#ef4444" opacity="0.85"/>
<text x="3010" y="462" fill="#f1f5f9" font-size="15" font-weight="700" text-anchor="middle">1964</text>
<text x="3010" y="480" fill="#94a3b8" font-size="11" text-anchor="middle">昭和39年</text>
<text x="3010" y="500" fill="#cbd5e1" font-size="10" text-anchor="middle" transform="rotate(12 3010 500)">東海道新幹線 開業（10/1）／東京オリンピック開幕（10/10）</text>
<rect x="3108" y="308" width="44" height="52" rx="3" fill="#22c55e" opacity="0.85"/>
<rect x="3108" y="360" width="44" height="26" rx="3" fill="#ef4444" opacity="0.85"/>
<text x="3130" y="462" fill="#f1f5f9" font-size="15" font-weight="700" text-anchor="middle">1965</text>
<text x="3130" y="480" fill="#94a3b8" font-size="11" text-anchor="middle">昭和40年</text>
<text x="3130" y="500" fill="#cbd5e1" font-size="10" text-anchor="middle" transform="rotate(12 3130 500)">米軍が北爆「ローリング・サンダー」開始（3/2）／海兵隊ダナン上陸（3/8）</text>
<rect x="3228" y="308" width="44" height="52" rx="3" fill="#22c55e" opacity="0.85"/>
<rect x="3228" y="360" width="44" height="52" rx="3" fill="#ef4444" opacity="0.85"/>
<text x="3250" y="462" fill="#f1f5f9" font-size="15" font-weight="700" text-anchor="middle">1966</text>
<text x="3250" y="480" fill="#94a3b8" font-size="11" text-anchor="middle">昭和41年</text>
<text x="3250" y="500" fill="#cbd5e1" font-size="10" text-anchor="middle" transform="rotate(12 3250 500)">米国：ベトナム戦費拡大で需要過熱・インフレ圧力台頭、FRB引き締めでDJIA年…</text>
<rect x="3348" y="334" width="44" height="26" rx="3" fill="#22c55e" opacity="0.85"/>
<rect x="3348" y="360" width="44" height="26" rx="3" fill="#ef4444" opacity="0.85"/>
<text x="3370" y="462" fill="#f1f5f9" font-size="15" font-weight="700" text-anchor="middle">1967</text>
<text x="3370" y="480" fill="#94a3b8" font-size="11" text-anchor="middle">昭和42年</text>
<text x="3370" y="500" fill="#cbd5e1" font-size="10" text-anchor="middle" transform="rotate(12 3370 500)">EC（欧州共同体）執政機関統合が発効（7/1）</text>
<rect x="3468" y="334" width="44" height="26" rx="3" fill="#22c55e" opacity="0.85"/>
<rect x="3468" y="360" width="44" height="26" rx="3" fill="#ef4444" opacity="0.85"/>
<text x="3490" y="462" fill="#f1f5f9" font-size="15" font-weight="700" text-anchor="middle">1968</text>
<text x="3490" y="480" fill="#94a3b8" font-size="11" text-anchor="middle">昭和43年</text>
<text x="3490" y="500" fill="#cbd5e1" font-size="10" text-anchor="middle" transform="rotate(12 3490 500)">ロンドン金プール崩壊→金の二重価格制へ（3月、ブレトンウッズ動揺）</text>
<rect x="3588" y="334" width="44" height="26" rx="3" fill="#22c55e" opacity="0.85"/>
<rect x="3588" y="360" width="44" height="26" rx="3" fill="#ef4444" opacity="0.85"/>
<text x="3610" y="462" fill="#f1f5f9" font-size="15" font-weight="700" text-anchor="middle">1969</text>
<text x="3610" y="480" fill="#94a3b8" font-size="11" text-anchor="middle">昭和44年</text>
<text x="3610" y="500" fill="#cbd5e1" font-size="10" text-anchor="middle" transform="rotate(12 3610 500)">東名高速道路 全線開通（5月、東京〜小牧）</text>
<rect x="3708" y="334" width="44" height="26" rx="3" fill="#22c55e" opacity="0.85"/>
<rect x="3708" y="360" width="44" height="26" rx="3" fill="#ef4444" opacity="0.85"/>
<text x="3730" y="462" fill="#f1f5f9" font-size="15" font-weight="700" text-anchor="middle">1970</text>
<text x="3730" y="480" fill="#94a3b8" font-size="11" text-anchor="middle">昭和45年</text>
<text x="3730" y="500" fill="#cbd5e1" font-size="10" text-anchor="middle" transform="rotate(12 3730 500)">大阪万博（EXPO\</text>
<rect x="3828" y="334" width="44" height="26" rx="3" fill="#22c55e" opacity="0.85"/>
<rect x="3828" y="360" width="44" height="26" rx="3" fill="#ef4444" opacity="0.85"/>
<text x="3850" y="462" fill="#f1f5f9" font-size="15" font-weight="700" text-anchor="middle">1971</text>
<text x="3850" y="480" fill="#94a3b8" font-size="11" text-anchor="middle">昭和46年</text>
<text x="3850" y="500" fill="#cbd5e1" font-size="10" text-anchor="middle" transform="rotate(12 3850 500)">ニクソン・ショック（8/15）— 金・ドル交換停止＝ブレトンウッズ体制崩壊・1…</text>
<rect x="3948" y="334" width="44" height="26" rx="3" fill="#22c55e" opacity="0.85"/>
<rect x="3948" y="360" width="44" height="26" rx="3" fill="#ef4444" opacity="0.85"/>
<text x="3970" y="462" fill="#f1f5f9" font-size="15" font-weight="700" text-anchor="middle">1972</text>
<text x="3970" y="480" fill="#94a3b8" font-size="11" text-anchor="middle">昭和47年</text>
<text x="3970" y="500" fill="#cbd5e1" font-size="10" text-anchor="middle" transform="rotate(12 3970 500)">ニクソン米大統領訪中（2/21–28）— 米中接近</text>
<rect x="4068" y="334" width="44" height="26" rx="3" fill="#22c55e" opacity="0.85"/>
<rect x="4068" y="360" width="44" height="26" rx="3" fill="#ef4444" opacity="0.85"/>
<text x="4090" y="462" fill="#f1f5f9" font-size="15" font-weight="700" text-anchor="middle">1973</text>
<text x="4090" y="480" fill="#94a3b8" font-size="11" text-anchor="middle">昭和48年</text>
<text x="4090" y="500" fill="#cbd5e1" font-size="10" text-anchor="middle" transform="rotate(12 4090 500)">日本が変動相場制へ移行（2/14）／主要国が2〜3月に変動相場制へ（ブレトンウ…</text>
<rect x="4188" y="334" width="44" height="26" rx="3" fill="#22c55e" opacity="0.85"/>
<rect x="4188" y="360" width="44" height="26" rx="3" fill="#ef4444" opacity="0.85"/>
<text x="4210" y="462" fill="#f1f5f9" font-size="15" font-weight="700" text-anchor="middle">1974</text>
<text x="4210" y="480" fill="#94a3b8" font-size="11" text-anchor="middle">昭和49年</text>
<text x="4210" y="500" fill="#cbd5e1" font-size="10" text-anchor="middle" transform="rotate(12 4210 500)">第一次石油危機の影響本格化 — 先進国で世界同時不況・スタグフレーション</text>
<rect x="4308" y="334" width="44" height="26" rx="3" fill="#22c55e" opacity="0.85"/>
<rect x="4308" y="360" width="44" height="26" rx="3" fill="#ef4444" opacity="0.85"/>
<text x="4330" y="462" fill="#f1f5f9" font-size="15" font-weight="700" text-anchor="middle">1975</text>
<text x="4330" y="480" fill="#94a3b8" font-size="11" text-anchor="middle">昭和50年</text>
<text x="4330" y="500" fill="#cbd5e1" font-size="10" text-anchor="middle" transform="rotate(12 4330 500)">サイゴン陥落（4/30）— ベトナム戦争が事実上終結</text>
<rect x="4428" y="308" width="44" height="52" rx="3" fill="#22c55e" opacity="0.85"/>
<rect x="4428" y="360" width="44" height="26" rx="3" fill="#ef4444" opacity="0.85"/>
<text x="4450" y="462" fill="#f1f5f9" font-size="15" font-weight="700" text-anchor="middle">1976</text>
<text x="4450" y="480" fill="#94a3b8" font-size="11" text-anchor="middle">昭和51年</text>
<text x="4450" y="500" fill="#cbd5e1" font-size="10" text-anchor="middle" transform="rotate(12 4450 500)">ロッキード事件で田中角栄前首相を逮捕（7/27）</text>
<rect x="4548" y="308" width="44" height="52" rx="3" fill="#22c55e" opacity="0.85"/>
<rect x="4548" y="360" width="44" height="26" rx="3" fill="#ef4444" opacity="0.85"/>
<text x="4570" y="462" fill="#f1f5f9" font-size="15" font-weight="700" text-anchor="middle">1977</text>
<text x="4570" y="480" fill="#94a3b8" font-size="11" text-anchor="middle">昭和52年</text>
<text x="4570" y="500" fill="#cbd5e1" font-size="10" text-anchor="middle" transform="rotate(12 4570 500)">カーター米大統領就任（1月）／ロンドン・サミットで機関車論（5月）</text>
<rect x="4668" y="334" width="44" height="26" rx="3" fill="#22c55e" opacity="0.85"/>
<rect x="4668" y="360" width="44" height="26" rx="3" fill="#ef4444" opacity="0.85"/>
<text x="4690" y="462" fill="#f1f5f9" font-size="15" font-weight="700" text-anchor="middle">1978</text>
<text x="4690" y="480" fill="#94a3b8" font-size="11" text-anchor="middle">昭和53年</text>
<text x="4690" y="500" fill="#cbd5e1" font-size="10" text-anchor="middle" transform="rotate(12 4690 500)">新東京国際空港（成田）開港（5/20）</text>
<rect x="4788" y="308" width="44" height="52" rx="3" fill="#22c55e" opacity="0.85"/>
<rect x="4788" y="360" width="44" height="26" rx="3" fill="#ef4444" opacity="0.85"/>
<text x="4810" y="462" fill="#f1f5f9" font-size="15" font-weight="700" text-anchor="middle">1979</text>
<text x="4810" y="480" fill="#94a3b8" font-size="11" text-anchor="middle">昭和54年</text>
<text x="4810" y="500" fill="#cbd5e1" font-size="10" text-anchor="middle" transform="rotate(12 4810 500)">第二次石油危機（イラン革命を契機に原油価格が約1年で2倍超）</text>
<rect x="4908" y="334" width="44" height="26" rx="3" fill="#22c55e" opacity="0.85"/>
<rect x="4908" y="360" width="44" height="26" rx="3" fill="#ef4444" opacity="0.85"/>
<text x="4930" y="462" fill="#f1f5f9" font-size="15" font-weight="700" text-anchor="middle">1980</text>
<text x="4930" y="480" fill="#94a3b8" font-size="11" text-anchor="middle">昭和55年</text>
<text x="4930" y="500" fill="#cbd5e1" font-size="10" text-anchor="middle" transform="rotate(12 4930 500)">第二次石油危機による世界的インフレ再燃（米CPI約13%）</text>
<rect x="5028" y="334" width="44" height="26" rx="3" fill="#22c55e" opacity="0.85"/>
<rect x="5028" y="360" width="44" height="26" rx="3" fill="#ef4444" opacity="0.85"/>
<text x="5050" y="462" fill="#f1f5f9" font-size="15" font-weight="700" text-anchor="middle">1981</text>
<text x="5050" y="480" fill="#94a3b8" font-size="11" text-anchor="middle">昭和56年</text>
<text x="5050" y="500" fill="#cbd5e1" font-size="10" text-anchor="middle" transform="rotate(12 5050 500)">レーガン大統領就任（1月）・レーガノミクス始動</text>
<rect x="70" y="584" width="14" height="14" rx="2" fill="#22c55e"/>
<text x="90" y="596" fill="#cbd5e1" font-size="12">拡大傾向の産業数</text>
<rect x="230" y="584" width="14" height="14" rx="2" fill="#ef4444"/>
<text x="250" y="596" fill="#cbd5e1" font-size="12">縮小傾向の産業数</text>
<text x="5110" y="596" fill="#64748b" font-size="11" text-anchor="end">出典: economicHistoryKnowledge.ts（各年 ≥2 出典・うち権威ある出典1件以上）</text>
</svg>
