<svg xmlns="http://www.w3.org/2000/svg" width="2950" height="602" viewBox="0 0 2950 602" font-family="'Hiragino Sans','Noto Sans JP',sans-serif">
<rect width="2950" height="602" fill="#0f172a"/>
<text x="60" y="36" fill="#f1f5f9" font-size="22" font-weight="700">資産クラス別 年次推移（株式・不動産・仮想通貨）</text>
<text x="60" y="60" fill="#94a3b8" font-size="12">各系列を自系列の最大値=100%に正規化して重ね描き。欠損(null=未照合／その年に存在しない資産)は線を引かない。</text>
<line x1="80" y1="90" x2="80" y2="450" stroke="#475569"/>
<line x1="80" y1="450" x2="2900" y2="450" stroke="#475569"/>
<line x1="80" y1="450" x2="2900" y2="450" stroke="#1e293b"/>
<text x="72" y="454" fill="#64748b" font-size="10" text-anchor="end">0%</text>
<line x1="80" y1="360" x2="2900" y2="360" stroke="#1e293b"/>
<text x="72" y="364" fill="#64748b" font-size="10" text-anchor="end">25%</text>
<line x1="80" y1="270" x2="2900" y2="270" stroke="#1e293b"/>
<text x="72" y="274" fill="#64748b" font-size="10" text-anchor="end">50%</text>
<line x1="80" y1="180" x2="2900" y2="180" stroke="#1e293b"/>
<text x="72" y="184" fill="#64748b" font-size="10" text-anchor="end">75%</text>
<line x1="80" y1="90" x2="2900" y2="90" stroke="#1e293b"/>
<text x="72" y="94" fill="#64748b" font-size="10" text-anchor="end">100%</text>
<text x="80" y="468" fill="#cbd5e1" font-size="10" text-anchor="middle">1940</text>
<text x="200" y="468" fill="#cbd5e1" font-size="10" text-anchor="middle">1942</text>
<text x="320" y="468" fill="#cbd5e1" font-size="10" text-anchor="middle">1944</text>
<text x="440" y="468" fill="#cbd5e1" font-size="10" text-anchor="middle">1946</text>
<text x="560" y="468" fill="#cbd5e1" font-size="10" text-anchor="middle">1948</text>
<text x="680" y="468" fill="#cbd5e1" font-size="10" text-anchor="middle">1950</text>
<text x="800" y="468" fill="#cbd5e1" font-size="10" text-anchor="middle">1952</text>
<text x="920" y="468" fill="#cbd5e1" font-size="10" text-anchor="middle">1954</text>
<text x="1040" y="468" fill="#cbd5e1" font-size="10" text-anchor="middle">1956</text>
<text x="1160" y="468" fill="#cbd5e1" font-size="10" text-anchor="middle">1958</text>
<text x="1280" y="468" fill="#cbd5e1" font-size="10" text-anchor="middle">1960</text>
<text x="1400" y="468" fill="#cbd5e1" font-size="10" text-anchor="middle">1962</text>
<text x="1520" y="468" fill="#cbd5e1" font-size="10" text-anchor="middle">1964</text>
<text x="1640" y="468" fill="#cbd5e1" font-size="10" text-anchor="middle">1966</text>
<text x="1760" y="468" fill="#cbd5e1" font-size="10" text-anchor="middle">1968</text>
<text x="1880" y="468" fill="#cbd5e1" font-size="10" text-anchor="middle">1970</text>
<text x="2000" y="468" fill="#cbd5e1" font-size="10" text-anchor="middle">1972</text>
<text x="2120" y="468" fill="#cbd5e1" font-size="10" text-anchor="middle">1974</text>
<text x="2240" y="468" fill="#cbd5e1" font-size="10" text-anchor="middle">1976</text>
<text x="2360" y="468" fill="#cbd5e1" font-size="10" text-anchor="middle">1978</text>
<text x="2480" y="468" fill="#cbd5e1" font-size="10" text-anchor="middle">1980</text>
<text x="2600" y="468" fill="#cbd5e1" font-size="10" text-anchor="middle">1982</text>
<text x="2720" y="468" fill="#cbd5e1" font-size="10" text-anchor="middle">1984</text>
<text x="2840" y="468" fill="#cbd5e1" font-size="10" text-anchor="middle">1986</text>
<circle cx="80" cy="425.7" r="3" fill="#38bdf8"/>
<circle cx="140" cy="429.4" r="3" fill="#38bdf8"/>
<circle cx="200" cy="427.8" r="3" fill="#38bdf8"/>
<circle cx="260" cy="424.8" r="3" fill="#38bdf8"/>
<circle cx="320" cy="421.7" r="3" fill="#38bdf8"/>
<circle cx="380" cy="414.2" r="3" fill="#38bdf8"/>
<circle cx="440" cy="417.1" r="3" fill="#38bdf8"/>
<circle cx="500" cy="416.4" r="3" fill="#38bdf8"/>
<circle cx="560" cy="417.1" r="3" fill="#38bdf8"/>
<circle cx="620" cy="412.8" r="3" fill="#38bdf8"/>
<circle cx="680" cy="406.3" r="3" fill="#38bdf8"/>
<circle cx="740" cy="400.0" r="3" fill="#38bdf8"/>
<circle cx="800" cy="395.8" r="3" fill="#38bdf8"/>
<circle cx="860" cy="397.8" r="3" fill="#38bdf8"/>
<circle cx="920" cy="374.9" r="3" fill="#38bdf8"/>
<circle cx="980" cy="359.3" r="3" fill="#38bdf8"/>
<circle cx="1040" cy="357.3" r="3" fill="#38bdf8"/>
<circle cx="1100" cy="369.1" r="3" fill="#38bdf8"/>
<circle cx="1160" cy="341.6" r="3" fill="#38bdf8"/>
<circle cx="1220" cy="323.9" r="3" fill="#38bdf8"/>
<circle cx="1280" cy="335.6" r="3" fill="#38bdf8"/>
<circle cx="1340" cy="314.2" r="3" fill="#38bdf8"/>
<circle cx="1400" cy="328.9" r="3" fill="#38bdf8"/>
<circle cx="1460" cy="308.3" r="3" fill="#38bdf8"/>
<circle cx="1520" cy="287.7" r="3" fill="#38bdf8"/>
<circle cx="1580" cy="270.0" r="3" fill="#38bdf8"/>
<circle cx="1640" cy="304.1" r="3" fill="#38bdf8"/>
<circle cx="1700" cy="281.9" r="3" fill="#38bdf8"/>
<circle cx="1760" cy="274.8" r="3" fill="#38bdf8"/>
<circle cx="1820" cy="301.4" r="3" fill="#38bdf8"/>
<circle cx="1880" cy="294.2" r="3" fill="#38bdf8"/>
<circle cx="1940" cy="284.7" r="3" fill="#38bdf8"/>
<circle cx="2000" cy="260.6" r="3" fill="#38bdf8"/>
<circle cx="2060" cy="292.0" r="3" fill="#38bdf8"/>
<circle cx="2120" cy="335.6" r="3" fill="#38bdf8"/>
<circle cx="2180" cy="291.7" r="3" fill="#38bdf8"/>
<circle cx="2240" cy="263.5" r="3" fill="#38bdf8"/>
<circle cx="2300" cy="295.7" r="3" fill="#38bdf8"/>
<circle cx="2360" cy="300.5" r="3" fill="#38bdf8"/>
<circle cx="2420" cy="294.3" r="3" fill="#38bdf8"/>
<circle cx="2480" cy="271.0" r="3" fill="#38bdf8"/>
<circle cx="2540" cy="287.5" r="3" fill="#38bdf8"/>
<circle cx="2600" cy="255.7" r="3" fill="#38bdf8"/>
<circle cx="2660" cy="216.3" r="3" fill="#38bdf8"/>
<circle cx="2720" cy="225.0" r="3" fill="#38bdf8"/>
<circle cx="2780" cy="162.8" r="3" fill="#38bdf8"/>
<circle cx="2840" cy="98.0" r="3" fill="#38bdf8"/>
<circle cx="2900" cy="90.0" r="3" fill="#38bdf8"/>
<path d="M80,425.7 L140,429.4 L200,427.8 L260,424.8 L320,421.7 L380,414.2 L440,417.1 L500,416.4 L560,417.1 L620,412.8 L680,406.3 L740,400.0 L800,395.8 L860,397.8 L920,374.9 L980,359.3 L1040,357.3 L1100,369.1 L1160,341.6 L1220,323.9 L1280,335.6 L1340,314.2 L1400,328.9 L1460,308.3 L1520,287.7 L1580,270.0 L1640,304.1 L1700,281.9 L1760,274.8 L1820,301.4 L1880,294.2 L1940,284.7 L2000,260.6 L2060,292.0 L2120,335.6 L2180,291.7 L2240,263.5 L2300,295.7 L2360,300.5 L2420,294.3 L2480,271.0 L2540,287.5 L2600,255.7 L2660,216.3 L2720,225.0 L2780,162.8 L2840,98.0 L2900,90.0" fill="none" stroke="#38bdf8" stroke-width="2"/>
<circle cx="2180" cy="377.5" r="3" fill="#f97316"/>
<circle cx="2360" cy="349.8" r="3" fill="#f97316"/>
<circle cx="2420" cy="340.3" r="3" fill="#f97316"/>
<circle cx="2600" cy="316.2" r="3" fill="#f97316"/>
<circle cx="2840" cy="137.8" r="3" fill="#f97316"/>
<circle cx="2900" cy="90.0" r="3" fill="#f97316"/>
<path d="M2180,377.5 M2360,349.8 L2420,340.3 M2600,316.2 M2840,137.8 L2900,90.0" fill="none" stroke="#f97316" stroke-width="2"/>
<rect x="60" y="486" width="13" height="13" rx="2" fill="#38bdf8"/>
<text x="78" y="497" fill="#cbd5e1" font-size="11">ダウ平均(米株, 年末USD) — データ48年（直近 1938.83）</text>
<rect x="60" y="504" width="13" height="13" rx="2" fill="#f97316"/>
<text x="78" y="515" fill="#cbd5e1" font-size="11">日経平均(日本株, 年末円) — データ6年（直近 21564）</text>
<rect x="60" y="522" width="13" height="13" rx="2" fill="#a3e635"/>
<text x="78" y="533" fill="#cbd5e1" font-size="11">市街地価格指数(不動産, 1936/9=100) — データなし（N/A・未照合またはその年に存在しない資産）</text>
<rect x="60" y="540" width="13" height="13" rx="2" fill="#facc15"/>
<text x="78" y="551" fill="#cbd5e1" font-size="11">ビットコイン(仮想通貨, 年末USD) — データなし（N/A・未照合またはその年に存在しない資産）</text>
<text x="2920" y="594" fill="#64748b" font-size="10" text-anchor="end">出典: economicHistoryKnowledge.ts ASSET_SERIES（DJIA=MeasuringWorth/FRED 他・確証値）</text>
</svg>
