<svg xmlns="http://www.w3.org/2000/svg" width="5230" height="602" viewBox="0 0 5230 602" font-family="'Hiragino Sans','Noto Sans JP',sans-serif">
<rect width="5230" height="602" fill="#0f172a"/>
<text x="60" y="36" fill="#f1f5f9" font-size="22" font-weight="700">資産クラス別 年次推移（株式・不動産・仮想通貨）</text>
<text x="60" y="60" fill="#94a3b8" font-size="12">各系列を自系列の最大値=100%に正規化して重ね描き。欠損(null=未照合／その年に存在しない資産)は線を引かない。</text>
<line x1="80" y1="90" x2="80" y2="450" stroke="#475569"/>
<line x1="80" y1="450" x2="5180" y2="450" stroke="#475569"/>
<line x1="80" y1="450" x2="5180" y2="450" stroke="#1e293b"/>
<text x="72" y="454" fill="#64748b" font-size="10" text-anchor="end">0%</text>
<line x1="80" y1="360" x2="5180" y2="360" stroke="#1e293b"/>
<text x="72" y="364" fill="#64748b" font-size="10" text-anchor="end">25%</text>
<line x1="80" y1="270" x2="5180" y2="270" stroke="#1e293b"/>
<text x="72" y="274" fill="#64748b" font-size="10" text-anchor="end">50%</text>
<line x1="80" y1="180" x2="5180" y2="180" stroke="#1e293b"/>
<text x="72" y="184" fill="#64748b" font-size="10" text-anchor="end">75%</text>
<line x1="80" y1="90" x2="5180" y2="90" stroke="#1e293b"/>
<text x="72" y="94" fill="#64748b" font-size="10" text-anchor="end">100%</text>
<text x="80" y="468" fill="#cbd5e1" font-size="10" text-anchor="middle">1940</text>
<text x="200" y="468" fill="#cbd5e1" font-size="10" text-anchor="middle">1942</text>
<text x="320" y="468" fill="#cbd5e1" font-size="10" text-anchor="middle">1944</text>
<text x="440" y="468" fill="#cbd5e1" font-size="10" text-anchor="middle">1946</text>
<text x="560" y="468" fill="#cbd5e1" font-size="10" text-anchor="middle">1948</text>
<text x="680" y="468" fill="#cbd5e1" font-size="10" text-anchor="middle">1950</text>
<text x="800" y="468" fill="#cbd5e1" font-size="10" text-anchor="middle">1952</text>
<text x="920" y="468" fill="#cbd5e1" font-size="10" text-anchor="middle">1954</text>
<text x="1040" y="468" fill="#cbd5e1" font-size="10" text-anchor="middle">1956</text>
<text x="1160" y="468" fill="#cbd5e1" font-size="10" text-anchor="middle">1958</text>
<text x="1280" y="468" fill="#cbd5e1" font-size="10" text-anchor="middle">1960</text>
<text x="1400" y="468" fill="#cbd5e1" font-size="10" text-anchor="middle">1962</text>
<text x="1520" y="468" fill="#cbd5e1" font-size="10" text-anchor="middle">1964</text>
<text x="1640" y="468" fill="#cbd5e1" font-size="10" text-anchor="middle">1966</text>
<text x="1760" y="468" fill="#cbd5e1" font-size="10" text-anchor="middle">1968</text>
<text x="1880" y="468" fill="#cbd5e1" font-size="10" text-anchor="middle">1970</text>
<text x="2000" y="468" fill="#cbd5e1" font-size="10" text-anchor="middle">1972</text>
<text x="2120" y="468" fill="#cbd5e1" font-size="10" text-anchor="middle">1974</text>
<text x="2240" y="468" fill="#cbd5e1" font-size="10" text-anchor="middle">1976</text>
<text x="2360" y="468" fill="#cbd5e1" font-size="10" text-anchor="middle">1978</text>
<text x="2480" y="468" fill="#cbd5e1" font-size="10" text-anchor="middle">1980</text>
<text x="2600" y="468" fill="#cbd5e1" font-size="10" text-anchor="middle">1982</text>
<text x="2720" y="468" fill="#cbd5e1" font-size="10" text-anchor="middle">1984</text>
<text x="2840" y="468" fill="#cbd5e1" font-size="10" text-anchor="middle">1986</text>
<text x="2960" y="468" fill="#cbd5e1" font-size="10" text-anchor="middle">1988</text>
<text x="3080" y="468" fill="#cbd5e1" font-size="10" text-anchor="middle">1990</text>
<text x="3200" y="468" fill="#cbd5e1" font-size="10" text-anchor="middle">1992</text>
<text x="3320" y="468" fill="#cbd5e1" font-size="10" text-anchor="middle">1994</text>
<text x="3440" y="468" fill="#cbd5e1" font-size="10" text-anchor="middle">1996</text>
<text x="3560" y="468" fill="#cbd5e1" font-size="10" text-anchor="middle">1998</text>
<text x="3680" y="468" fill="#cbd5e1" font-size="10" text-anchor="middle">2000</text>
<text x="3800" y="468" fill="#cbd5e1" font-size="10" text-anchor="middle">2002</text>
<text x="3920" y="468" fill="#cbd5e1" font-size="10" text-anchor="middle">2004</text>
<text x="4040" y="468" fill="#cbd5e1" font-size="10" text-anchor="middle">2006</text>
<text x="4160" y="468" fill="#cbd5e1" font-size="10" text-anchor="middle">2008</text>
<text x="4280" y="468" fill="#cbd5e1" font-size="10" text-anchor="middle">2010</text>
<text x="4400" y="468" fill="#cbd5e1" font-size="10" text-anchor="middle">2012</text>
<text x="4520" y="468" fill="#cbd5e1" font-size="10" text-anchor="middle">2014</text>
<text x="4640" y="468" fill="#cbd5e1" font-size="10" text-anchor="middle">2016</text>
<text x="4760" y="468" fill="#cbd5e1" font-size="10" text-anchor="middle">2018</text>
<text x="4880" y="468" fill="#cbd5e1" font-size="10" text-anchor="middle">2020</text>
<text x="5000" y="468" fill="#cbd5e1" font-size="10" text-anchor="middle">2022</text>
<text x="5120" y="468" fill="#cbd5e1" font-size="10" text-anchor="middle">2024</text>
<circle cx="80" cy="449.0" r="3" fill="#38bdf8"/>
<circle cx="140" cy="449.2" r="3" fill="#38bdf8"/>
<circle cx="200" cy="449.1" r="3" fill="#38bdf8"/>
<circle cx="260" cy="449.0" r="3" fill="#38bdf8"/>
<circle cx="320" cy="448.9" r="3" fill="#38bdf8"/>
<circle cx="380" cy="448.6" r="3" fill="#38bdf8"/>
<circle cx="440" cy="448.7" r="3" fill="#38bdf8"/>
<circle cx="500" cy="448.6" r="3" fill="#38bdf8"/>
<circle cx="560" cy="448.7" r="3" fill="#38bdf8"/>
<circle cx="620" cy="448.5" r="3" fill="#38bdf8"/>
<circle cx="680" cy="448.2" r="3" fill="#38bdf8"/>
<circle cx="740" cy="448.0" r="3" fill="#38bdf8"/>
<circle cx="800" cy="447.8" r="3" fill="#38bdf8"/>
<circle cx="860" cy="447.9" r="3" fill="#38bdf8"/>
<circle cx="920" cy="447.0" r="3" fill="#38bdf8"/>
<circle cx="980" cy="446.3" r="3" fill="#38bdf8"/>
<circle cx="1040" cy="446.3" r="3" fill="#38bdf8"/>
<circle cx="1100" cy="446.7" r="3" fill="#38bdf8"/>
<circle cx="1160" cy="445.6" r="3" fill="#38bdf8"/>
<circle cx="1220" cy="444.9" r="3" fill="#38bdf8"/>
<circle cx="1280" cy="445.4" r="3" fill="#38bdf8"/>
<circle cx="1340" cy="444.5" r="3" fill="#38bdf8"/>
<circle cx="1400" cy="445.1" r="3" fill="#38bdf8"/>
<circle cx="1460" cy="444.3" r="3" fill="#38bdf8"/>
<circle cx="1520" cy="443.5" r="3" fill="#38bdf8"/>
<circle cx="1580" cy="442.7" r="3" fill="#38bdf8"/>
<circle cx="1640" cy="444.1" r="3" fill="#38bdf8"/>
<circle cx="1700" cy="443.2" r="3" fill="#38bdf8"/>
<circle cx="1760" cy="442.9" r="3" fill="#38bdf8"/>
<circle cx="1820" cy="444.0" r="3" fill="#38bdf8"/>
<circle cx="1880" cy="443.7" r="3" fill="#38bdf8"/>
<circle cx="1940" cy="443.3" r="3" fill="#38bdf8"/>
<circle cx="2000" cy="442.4" r="3" fill="#38bdf8"/>
<circle cx="2060" cy="443.6" r="3" fill="#38bdf8"/>
<circle cx="2120" cy="445.4" r="3" fill="#38bdf8"/>
<circle cx="2180" cy="443.6" r="3" fill="#38bdf8"/>
<circle cx="2240" cy="442.5" r="3" fill="#38bdf8"/>
<circle cx="2300" cy="443.8" r="3" fill="#38bdf8"/>
<circle cx="2360" cy="444.0" r="3" fill="#38bdf8"/>
<circle cx="2420" cy="443.7" r="3" fill="#38bdf8"/>
<circle cx="2480" cy="442.8" r="3" fill="#38bdf8"/>
<circle cx="2540" cy="443.4" r="3" fill="#38bdf8"/>
<circle cx="2600" cy="442.2" r="3" fill="#38bdf8"/>
<circle cx="2660" cy="440.6" r="3" fill="#38bdf8"/>
<circle cx="2720" cy="440.9" r="3" fill="#38bdf8"/>
<circle cx="2780" cy="438.4" r="3" fill="#38bdf8"/>
<circle cx="2840" cy="435.8" r="3" fill="#38bdf8"/>
<circle cx="2900" cy="435.5" r="3" fill="#38bdf8"/>
<circle cx="2960" cy="433.8" r="3" fill="#38bdf8"/>
<circle cx="3020" cy="429.4" r="3" fill="#38bdf8"/>
<circle cx="3080" cy="430.3" r="3" fill="#38bdf8"/>
<circle cx="3140" cy="426.3" r="3" fill="#38bdf8"/>
<circle cx="3200" cy="425.3" r="3" fill="#38bdf8"/>
<circle cx="3260" cy="421.9" r="3" fill="#38bdf8"/>
<circle cx="3320" cy="421.3" r="3" fill="#38bdf8"/>
<circle cx="3380" cy="411.7" r="3" fill="#38bdf8"/>
<circle cx="3440" cy="401.7" r="3" fill="#38bdf8"/>
<circle cx="3500" cy="390.8" r="3" fill="#38bdf8"/>
<circle cx="3560" cy="381.2" r="3" fill="#38bdf8"/>
<circle cx="3620" cy="363.9" r="3" fill="#38bdf8"/>
<circle cx="3680" cy="369.2" r="3" fill="#38bdf8"/>
<circle cx="3740" cy="374.9" r="3" fill="#38bdf8"/>
<circle cx="3800" cy="387.5" r="3" fill="#38bdf8"/>
<circle cx="3860" cy="371.7" r="3" fill="#38bdf8"/>
<circle cx="3920" cy="369.2" r="3" fill="#38bdf8"/>
<circle cx="3980" cy="369.7" r="3" fill="#38bdf8"/>
<circle cx="4040" cy="356.6" r="3" fill="#38bdf8"/>
<circle cx="4100" cy="350.6" r="3" fill="#38bdf8"/>
<circle cx="4160" cy="384.3" r="3" fill="#38bdf8"/>
<circle cx="4220" cy="371.9" r="3" fill="#38bdf8"/>
<circle cx="4280" cy="363.3" r="3" fill="#38bdf8"/>
<circle cx="4340" cy="358.5" r="3" fill="#38bdf8"/>
<circle cx="4400" cy="351.8" r="3" fill="#38bdf8"/>
<circle cx="4460" cy="325.8" r="3" fill="#38bdf8"/>
<circle cx="4520" cy="316.5" r="3" fill="#38bdf8"/>
<circle cx="4580" cy="319.5" r="3" fill="#38bdf8"/>
<circle cx="4640" cy="302.0" r="3" fill="#38bdf8"/>
<circle cx="4700" cy="264.8" r="3" fill="#38bdf8"/>
<circle cx="4760" cy="275.3" r="3" fill="#38bdf8"/>
<circle cx="4820" cy="236.2" r="3" fill="#38bdf8"/>
<circle cx="4880" cy="220.8" r="3" fill="#38bdf8"/>
<circle cx="4940" cy="177.8" r="3" fill="#38bdf8"/>
<circle cx="5000" cy="201.7" r="3" fill="#38bdf8"/>
<circle cx="5060" cy="167.7" r="3" fill="#38bdf8"/>
<circle cx="5120" cy="131.3" r="3" fill="#38bdf8"/>
<circle cx="5180" cy="90.0" r="3" fill="#38bdf8"/>
<path d="M80,449.0 L140,449.2 L200,449.1 L260,449.0 L320,448.9 L380,448.6 L440,448.7 L500,448.6 L560,448.7 L620,448.5 L680,448.2 L740,448.0 L800,447.8 L860,447.9 L920,447.0 L980,446.3 L1040,446.3 L1100,446.7 L1160,445.6 L1220,444.9 L1280,445.4 L1340,444.5 L1400,445.1 L1460,444.3 L1520,443.5 L1580,442.7 L1640,444.1 L1700,443.2 L1760,442.9 L1820,444.0 L1880,443.7 L1940,443.3 L2000,442.4 L2060,443.6 L2120,445.4 L2180,443.6 L2240,442.5 L2300,443.8 L2360,444.0 L2420,443.7 L2480,442.8 L2540,443.4 L2600,442.2 L2660,440.6 L2720,440.9 L2780,438.4 L2840,435.8 L2900,435.5 L2960,433.8 L3020,429.4 L3080,430.3 L3140,426.3 L3200,425.3 L3260,421.9 L3320,421.3 L3380,411.7 L3440,401.7 L3500,390.8 L3560,381.2 L3620,363.9 L3680,369.2 L3740,374.9 L3800,387.5 L3860,371.7 L3920,369.2 L3980,369.7 L4040,356.6 L4100,350.6 L4160,384.3 L4220,371.9 L4280,363.3 L4340,358.5 L4400,351.8 L4460,325.8 L4520,316.5 L4580,319.5 L4640,302.0 L4700,264.8 L4760,275.3 L4820,236.2 L4880,220.8 L4940,177.8 L5000,201.7 L5060,167.7 L5120,131.3 L5180,90.0" fill="none" stroke="#38bdf8" stroke-width="2"/>
<circle cx="2180" cy="418.9" r="3" fill="#f97316"/>
<circle cx="2360" cy="407.1" r="3" fill="#f97316"/>
<circle cx="2420" cy="403.0" r="3" fill="#f97316"/>
<circle cx="2600" cy="392.7" r="3" fill="#f97316"/>
<circle cx="2840" cy="316.3" r="3" fill="#f97316"/>
<circle cx="2900" cy="295.8" r="3" fill="#f97316"/>
<circle cx="2960" cy="234.3" r="3" fill="#f97316"/>
<circle cx="3020" cy="171.7" r="3" fill="#f97316"/>
<circle cx="3080" cy="279.5" r="3" fill="#f97316"/>
<circle cx="3140" cy="285.6" r="3" fill="#f97316"/>
<circle cx="3200" cy="329.0" r="3" fill="#f97316"/>
<circle cx="3440" cy="311.5" r="3" fill="#f97316"/>
<circle cx="3500" cy="340.9" r="3" fill="#f97316"/>
<circle cx="3680" cy="351.4" r="3" fill="#f97316"/>
<circle cx="3740" cy="374.6" r="3" fill="#f97316"/>
<circle cx="3920" cy="367.8" r="3" fill="#f97316"/>
<circle cx="3980" cy="334.8" r="3" fill="#f97316"/>
<circle cx="4040" cy="326.8" r="3" fill="#f97316"/>
<circle cx="4100" cy="340.5" r="3" fill="#f97316"/>
<circle cx="4160" cy="386.6" r="3" fill="#f97316"/>
<circle cx="4280" cy="376.8" r="3" fill="#f97316"/>
<circle cx="4340" cy="389.5" r="3" fill="#f97316"/>
<circle cx="4400" cy="375.7" r="3" fill="#f97316"/>
<circle cx="4460" cy="333.5" r="3" fill="#f97316"/>
<circle cx="4520" cy="325.2" r="3" fill="#f97316"/>
<circle cx="4580" cy="313.9" r="3" fill="#f97316"/>
<circle cx="4640" cy="313.3" r="3" fill="#f97316"/>
<circle cx="4700" cy="287.2" r="3" fill="#f97316"/>
<circle cx="4760" cy="306.9" r="3" fill="#f97316"/>
<circle cx="4820" cy="280.8" r="3" fill="#f97316"/>
<circle cx="4880" cy="253.7" r="3" fill="#f97316"/>
<circle cx="4940" cy="244.1" r="3" fill="#f97316"/>
<circle cx="5000" cy="263.4" r="3" fill="#f97316"/>
<circle cx="5060" cy="210.7" r="3" fill="#f97316"/>
<circle cx="5120" cy="164.7" r="3" fill="#f97316"/>
<circle cx="5180" cy="90.0" r="3" fill="#f97316"/>
<path d="M2180,418.9 M2360,407.1 L2420,403.0 M2600,392.7 M2840,316.3 L2900,295.8 L2960,234.3 L3020,171.7 L3080,279.5 L3140,285.6 L3200,329.0 M3440,311.5 L3500,340.9 M3680,351.4 L3740,374.6 M3920,367.8 L3980,334.8 L4040,326.8 L4100,340.5 L4160,386.6 M4280,376.8 L4340,389.5 L4400,375.7 L4460,333.5 L4520,325.2 L4580,313.9 L4640,313.3 L4700,287.2 L4760,306.9 L4820,280.8 L4880,253.7 L4940,244.1 L5000,263.4 L5060,210.7 L5120,164.7 L5180,90.0" fill="none" stroke="#f97316" stroke-width="2"/>
<circle cx="4400" cy="449.9" r="3" fill="#facc15"/>
<circle cx="4460" cy="447.1" r="3" fill="#facc15"/>
<circle cx="4520" cy="448.8" r="3" fill="#facc15"/>
<circle cx="4580" cy="448.3" r="3" fill="#facc15"/>
<circle cx="4640" cy="446.3" r="3" fill="#facc15"/>
<circle cx="4700" cy="395.5" r="3" fill="#facc15"/>
<circle cx="4760" cy="435.6" r="3" fill="#facc15"/>
<circle cx="4820" cy="422.3" r="3" fill="#facc15"/>
<circle cx="4880" cy="338.3" r="3" fill="#facc15"/>
<circle cx="4940" cy="271.6" r="3" fill="#facc15"/>
<circle cx="5000" cy="386.2" r="3" fill="#facc15"/>
<circle cx="5060" cy="287.2" r="3" fill="#facc15"/>
<circle cx="5120" cy="90.0" r="3" fill="#facc15"/>
<circle cx="5180" cy="112.8" r="3" fill="#facc15"/>
<path d="M4400,449.9 L4460,447.1 L4520,448.8 L4580,448.3 L4640,446.3 L4700,395.5 L4760,435.6 L4820,422.3 L4880,338.3 L4940,271.6 L5000,386.2 L5060,287.2 L5120,90.0 L5180,112.8" fill="none" stroke="#facc15" stroke-width="2"/>
<rect x="60" y="486" width="13" height="13" rx="2" fill="#38bdf8"/>
<text x="78" y="497" fill="#cbd5e1" font-size="11">ダウ平均(米株, 年末USD) — データ86年（直近 48063.29）</text>
<rect x="60" y="504" width="13" height="13" rx="2" fill="#f97316"/>
<text x="78" y="515" fill="#cbd5e1" font-size="11">日経平均(日本株, 年末円) — データ36年（直近 50339.48）</text>
<rect x="60" y="522" width="13" height="13" rx="2" fill="#a3e635"/>
<text x="78" y="533" fill="#cbd5e1" font-size="11">市街地価格指数(不動産, 1936/9=100) — データなし（N/A・未照合またはその年に存在しない資産）</text>
<rect x="60" y="540" width="13" height="13" rx="2" fill="#facc15"/>
<text x="78" y="551" fill="#cbd5e1" font-size="11">ビットコイン(仮想通貨, 年末USD) — データ14年（直近 87501.95）</text>
<text x="5200" y="594" fill="#64748b" font-size="10" text-anchor="end">出典: economicHistoryKnowledge.ts ASSET_SERIES（DJIA=MeasuringWorth/FRED 他・確証値）</text>
</svg>
